<?xml version="1.0" encoding="utf-8"?>
<!-- Generator: Adobe Illustrator 25.4.1, SVG Export Plug-In . SVG Version: 6.00 Build 0)  -->
<svg version="1.1" id="Layer_1" xmlns="http://www.w3.org/2000/svg" xmlns:xlink="http://www.w3.org/1999/xlink" x="0px" y="0px"
	 viewBox="0 0 548 126" style="enable-background:new 0 0 548 126;" xml:space="preserve">
<style type="text/css">
	.st0{fill:#3FA9F5;}
</style>
<path class="st0" d="M543.41,71.76h-12.28l-0.36,0.36v1.1l0.34,0.36c1.72,0.09,2.9,0.37,3.52,0.83c0.41,0.29,0.61,0.63,0.61,1.04
	c0,0.62-0.46,2.11-2.65,5.72l-6.92,11.59l-6.97-12.77c-1.93-3.49-2.33-4.75-2.33-5.19c0-0.25,0.19-0.51,0.55-0.77
	c0.4-0.29,1.16-0.44,2.24-0.44h0.86l0.36-0.36v-1.1l-0.36-0.36h-19.28l-0.36,0.36v1.1l0.35,0.36c1.2,0.02,2.16,0.31,2.87,0.86
	c0.73,0.57,2.04,2.56,3.88,5.9l9.42,17.16v7.98c0,2.56-0.18,3.35-0.3,3.59c-0.26,0.59-0.61,1.01-1.07,1.26
	c-0.64,0.38-1.52,0.58-2.64,0.58h-2.11l-0.36,0.36v1.1l0.36,0.36h22.58l0.36-0.36v-1.1l-0.36-0.36h-2.25c-1,0-1.8-0.18-2.38-0.53
	c-0.57-0.35-0.96-0.74-1.14-1.17c-0.14-0.32-0.3-1.22-0.3-3.73v-9.63l8.68-14.48c2.11-3.65,3.66-5.9,4.6-6.7
	c0.66-0.55,1.62-0.91,2.87-1.08l0.31-0.36v-1.1L543.41,71.76 M499.11,71.76h-16.38l-0.33,0.22l-10.59,25.73l-10.97-25.73l-0.33-0.22
	h-16.44l-0.36,0.36v1.1l0.36,0.36h1.28c1.06,0,1.91,0.18,2.52,0.53c0.6,0.35,1,0.74,1.18,1.17c0.14,0.31,0.3,1.2,0.3,3.67v25.46
	c0,2.46-0.04,2.89-0.05,2.94c-0.2,0.88-0.49,1.56-0.85,2.03c-0.35,0.46-0.89,0.84-1.59,1.12c-0.73,0.29-1.5,0.42-2.36,0.41h-0.42
	l-0.36,0.36v1.1l0.36,0.36h13.77l0.36-0.36v-1.1l-0.36-0.36c-1.75,0-3.04-0.29-3.84-0.87c-0.8-0.58-1.3-1.3-1.53-2.2
	c-0.09-0.42-0.14-1.62-0.14-3.57V77.68l14.97,34.82l0.33,0.22h0.71l0.33-0.22l14.73-35.05v28.02c0,2.56-0.18,3.35-0.3,3.59
	c-0.26,0.6-0.61,1.02-1.04,1.26c-0.65,0.38-1.55,0.58-2.66,0.58h-1.31l-0.36,0.36v1.1l0.36,0.36h21l0.36-0.36v-1.1l-0.36-0.36h-1.31
	c-1.06,0-1.91-0.18-2.52-0.53c-0.6-0.35-1-0.74-1.18-1.18c-0.14-0.32-0.3-1.23-0.3-3.72V78.95c0-2.53,0.19-3.32,0.3-3.56
	c0.26-0.58,0.61-0.99,1.04-1.23c0.65-0.38,1.55-0.57,2.66-0.57h1.31l0.36-0.36v-1.1L499.11,71.76 M440.14,99.21h-1.1l-0.35,0.27
	c-0.96,3.46-2.56,6.08-4.75,7.76c-2.19,1.68-5.15,2.53-8.81,2.53h-2.4c-1.07,0-1.85-0.14-2.3-0.42c-0.45-0.27-0.74-0.61-0.91-1.04
	c-0.12-0.31-0.26-1.24-0.26-3.94V93.41c1.67,0.03,2.97,0.27,3.86,0.71c0.93,0.47,1.77,1.41,2.5,2.8c0.74,1.41,1.23,3.27,1.46,5.51
	l0.36,0.32h1.13l0.36-0.36V81.32l-0.36-0.36h-1.13l-0.36,0.32c-0.31,3.05-1.02,5.37-2.13,6.92c-1.09,1.52-2.8,2.25-5.26,2.25h-0.44
	V74.8h3.79c3,0,5.06,0.17,6.12,0.52c1.82,0.57,3.24,1.47,4.23,2.67c1,1.21,1.79,3.26,2.34,6.1l0.35,0.29h1.13l0.36-0.36v-11.9
	l-0.36-0.36h-33.68l-0.36,0.36v1.1l0.36,0.36h1.34c1.22,0,2.19,0.26,2.88,0.76c0.47,0.33,0.78,0.79,0.96,1.39
	c0.05,0.22,0.14,0.95,0.14,3.27v26.46c0,2.56-0.19,3.35-0.3,3.6c-0.24,0.59-0.59,1.01-1.04,1.25c-0.65,0.39-1.54,0.58-2.63,0.58
	h-1.34l-0.36,0.36v1.09l0.36,0.36h34.77l0.36-0.31l1.81-12.79l-0.08-0.29L440.14,99.21 M389.01,73.75c3.64,1.62,6.43,4.12,8.31,7.42
	c1.87,3.29,2.82,7.05,2.82,11.19c0,2.86-0.47,5.53-1.39,7.95c-0.93,2.42-2.14,4.44-3.61,6.02c-1.46,1.58-3.18,2.86-5.1,3.82
	c-1.91,0.95-4.27,1.7-7.02,2.21c-1.22,0.24-3.16,0.36-5.76,0.36h-18.01l-0.36-0.36v-1.1l0.36-0.36h1.33c1.1,0,1.94-0.17,2.5-0.5
	c0.56-0.33,0.97-0.78,1.23-1.34c0.09-0.2,0.24-0.94,0.24-3.59V79.01c0-2.48-0.16-3.39-0.3-3.72c-0.19-0.44-0.58-0.83-1.17-1.18
	c-0.6-0.35-1.45-0.53-2.5-0.53h-1.33l-0.36-0.36v-1.1l0.36-0.36h18.01C382.1,71.77,386.05,72.43,389.01,73.75 M388.71,92.6
	c0-5.08-0.81-9.18-2.39-12.2c-1.24-2.33-2.85-3.93-4.78-4.76c-1.32-0.57-3.54-0.86-6.59-0.86v31.03c0,2.11,0.13,2.73,0.21,2.92
	c0.13,0.3,0.33,0.52,0.64,0.68c0.48,0.27,1.2,0.4,2.14,0.4c3.17,0,5.62-1.09,7.28-3.24C387.54,103.59,388.71,98.89,388.71,92.6
	 M357.8,110.9l0.33,0.36v1.1l-0.36,0.36h-19.46l-0.36-0.36v-1.1l0.36-0.36h0.8c1.48,0,2.52-0.2,3.09-0.59
	c0.33-0.24,0.5-0.59,0.5-1.07c0-0.32-0.06-0.65-0.16-0.99c-0.03-0.1-0.14-0.45-0.88-2.19l-2.04-4.79h-13.74l-1.59,3.7
	c-0.53,1.25-0.8,2.29-0.8,3.09c0,1,0.39,1.71,1.19,2.18c0.33,0.2,1.26,0.47,3.79,0.66l0.34,0.36v1.1l-0.36,0.36h-13.38l-0.36-0.36
	v-1.1l0.31-0.35c1.36-0.21,2.49-0.77,3.35-1.69c0.9-0.94,2.03-2.95,3.37-5.97l14.39-32.1l0.33-0.21h0.57l0.33,0.21l14.51,32.99
	c1.36,3.06,2.48,5.01,3.33,5.78C355.78,110.48,356.66,110.81,357.8,110.9 M332.85,85.75l-5.61,12.59h11.06L332.85,85.75z
	 M311.26,70.85h-1.16l-0.36,0.31c-0.13,0.92-0.4,1.6-0.8,2c-0.4,0.4-0.85,0.59-1.39,0.59c-0.31,0-1.14-0.18-3.34-1.04
	c-3.17-1.24-6.23-1.86-9.09-1.86c-3.88,0-7.6,0.97-11.05,2.89c-3.45,1.92-6.23,4.66-8.26,8.14c-2.03,3.48-3.06,7.22-3.06,11.1
	c0,3.68,0.93,7.21,2.76,10.47c1.84,3.28,4.48,5.82,7.86,7.56c3.37,1.74,7.27,2.62,11.6,2.62c3.3,0,6.23-0.54,8.7-1.62
	c2.47-1.07,4.89-2.82,7.17-5.2l0.1-0.25v-3.47l-0.23-0.34l-0.4,0.1c-2.29,2.66-4.5,4.56-6.55,5.64c-2.05,1.07-4.33,1.62-6.79,1.62
	c-2.99,0-5.45-0.74-7.31-2.2c-1.87-1.46-3.27-3.65-4.15-6.52c-0.9-2.91-1.35-6.18-1.35-9.73c0-3.59,0.62-6.9,1.84-9.83
	c0.94-2.26,2.44-4.11,4.47-5.51c2.03-1.4,4.28-2.1,6.71-2.1c2.91,0,5.54,0.95,7.84,2.83c2.3,1.88,3.9,4.63,4.74,8.17l0.35,0.28h1.16
	l0.36-0.36V71.2L311.26,70.85 M270.05,110.9l0.33,0.36v1.1l-0.36,0.36h-19.46l-0.36-0.36v-1.1l0.36-0.36h0.8
	c1.48,0,2.52-0.2,3.09-0.59c0.33-0.24,0.5-0.59,0.5-1.07c0-0.32-0.05-0.65-0.16-0.99c-0.02-0.09-0.12-0.41-0.88-2.19l-2.04-4.79
	h-13.74l-1.6,3.7c-0.53,1.25-0.8,2.29-0.8,3.09c0,1,0.39,1.71,1.19,2.18c0.33,0.2,1.26,0.47,3.79,0.66l0.34,0.36v1.1l-0.36,0.36
	h-13.38l-0.36-0.36v-1.1l0.31-0.35c1.36-0.21,2.49-0.77,3.35-1.69c0.9-0.94,2.03-2.95,3.37-5.97l14.39-32.1l0.33-0.21h0.56
	l0.33,0.21l14.51,32.99c1.36,3.06,2.47,5.01,3.33,5.78C268.02,110.48,268.9,110.81,270.05,110.9 M250.54,98.35l-5.45-12.59
	l-5.61,12.59H250.54z M501.35,62.12h34.77l0.36-0.31l1.81-12.79l-0.09-0.29l-0.27-0.13h-1.1l-0.35,0.27
	c-0.96,3.47-2.56,6.08-4.75,7.76c-2.19,1.68-5.15,2.53-8.81,2.53h-2.4c-1.08,0-1.85-0.14-2.3-0.42c-0.45-0.27-0.74-0.61-0.9-1.04
	c-0.12-0.31-0.26-1.24-0.26-3.93V42.81c1.68,0.03,2.97,0.27,3.87,0.71c0.93,0.47,1.77,1.41,2.5,2.8c0.74,1.42,1.23,3.27,1.46,5.51
	l0.36,0.32h1.13l0.36-0.36V30.73l-0.36-0.36h-1.13l-0.36,0.32c-0.31,3.05-1.02,5.37-2.13,6.92c-1.08,1.52-2.8,2.25-5.25,2.25h-0.44
	V24.2h3.79c3,0,5.06,0.18,6.12,0.52c1.82,0.57,3.24,1.47,4.23,2.67c1,1.21,1.78,3.26,2.34,6.1l0.35,0.29h1.13l0.36-0.36v-11.9
	l-0.36-0.36h-33.68l-0.36,0.36v1.1l0.36,0.36h1.34c1.22,0,2.19,0.26,2.88,0.77c0.46,0.33,0.78,0.79,0.95,1.38
	c0.06,0.27,0.14,1.06,0.14,3.27v26.46c0,2.56-0.19,3.35-0.3,3.6c-0.24,0.59-0.59,1.01-1.04,1.25c-0.65,0.38-1.54,0.57-2.63,0.57
	h-1.34l-0.36,0.36v1.1L501.35,62.12 M444,62.12h13.77l0.36-0.36v-1.1l-0.36-0.36c-1.75,0-3.04-0.29-3.84-0.87
	c-0.8-0.58-1.3-1.31-1.54-2.2c-0.06-0.29-0.14-1.15-0.14-3.57V27.08l14.97,34.82l0.33,0.22h0.71l0.33-0.22l14.73-35.05v28.02
	c0,2.56-0.18,3.35-0.3,3.59c-0.27,0.59-0.61,1.02-1.04,1.26c-0.66,0.38-1.55,0.57-2.67,0.57h-1.31l-0.36,0.36v1.1l0.36,0.36h21.01
	l0.36-0.36v-1.1l-0.36-0.36h-1.31c-1.06,0-1.91-0.18-2.52-0.53c-0.6-0.35-0.99-0.74-1.18-1.18c-0.14-0.32-0.3-1.23-0.3-3.72V28.35
	c0-2.41,0.16-3.26,0.3-3.56c0.26-0.58,0.61-0.99,1.04-1.23c0.65-0.38,1.55-0.57,2.66-0.57h1.31l0.36-0.36v-1.1l-0.36-0.36h-16.38
	l-0.33,0.22l-10.59,25.73l-10.96-25.73l-0.33-0.22H444l-0.36,0.36v1.1l0.36,0.36h1.28c1.05,0,1.9,0.18,2.52,0.53
	c0.6,0.35,1,0.74,1.18,1.17c0.13,0.31,0.3,1.2,0.3,3.67v25.46c0,2.4-0.04,2.87-0.05,2.94c-0.21,0.88-0.49,1.56-0.85,2.03
	c-0.35,0.46-0.89,0.84-1.6,1.12c-0.72,0.29-1.5,0.41-2.36,0.41H444l-0.36,0.36v1.1L444,62.12 M418.99,20.6
	c6.48-0.23,11.82,1.69,15.87,5.71c4.06,4.03,6.11,9.13,6.11,15.18c0,5.16-1.53,9.77-4.55,13.69c-4.01,5.21-9.75,7.85-17.05,7.85
	c-7.32,0-13.06-2.52-17.07-7.49c-3.16-3.92-4.77-8.64-4.77-14.02c0-6.04,2.09-11.16,6.2-15.2C407.86,22.29,412.98,20.37,418.99,20.6
	 M428.12,52.78c0.95-2.73,1.44-6.35,1.44-10.76c0-5.25-0.49-9.22-1.46-11.81c-0.96-2.56-2.18-4.39-3.65-5.42
	c-1.46-1.04-3.18-1.57-5.09-1.57c-3.56,0-6.21,1.78-8.08,5.44c-1.53,3.02-2.3,7.44-2.3,13.13c0,6.75,1.2,11.8,3.55,15.01
	c1.6,2.18,3.87,3.3,6.76,3.3c1.95,0,3.6-0.48,4.89-1.41C425.85,57.46,427.18,55.47,428.12,52.78 M364.88,63.04h1.1l0.33-0.22
	c0.33-0.74,0.75-1.3,1.27-1.65c0.51-0.35,0.99-0.53,1.43-0.53c0.56,0,1.3,0.19,2.2,0.56c1.72,0.72,3.16,1.21,4.3,1.47
	c1.14,0.26,2.38,0.39,3.67,0.39c4.11,0,7.56-1.25,10.23-3.73c2.68-2.48,4.05-5.49,4.05-8.95c0-2.72-0.85-5.17-2.51-7.29
	c-1.67-2.09-4.92-4.33-9.65-6.65c-3.33-1.65-5.48-2.8-6.39-3.44c-1.22-0.88-2.11-1.77-2.66-2.65c-0.38-0.63-0.57-1.36-0.57-2.19
	c0-1.31,0.54-2.44,1.64-3.45c1.11-1.01,2.63-1.52,4.55-1.52c2.51,0,4.87,1,7.04,2.98c2.17,1.98,3.56,4.64,4.11,7.91l0.36,0.3h1.21
	l0.26-0.11l0.1-0.26l-0.33-13.41l-0.36-0.35h-0.89l-0.35,0.28c-0.32,1.49-0.6,1.96-0.74,2.11c-0.23,0.24-0.54,0.36-0.95,0.36
	c-0.33,0-1.06-0.16-2.65-0.93c-1.34-0.65-2.51-1.1-3.46-1.35c-1.25-0.32-2.56-0.48-3.89-0.48c-3.66,0-6.74,1.17-9.15,3.48
	c-2.42,2.31-3.64,5.16-3.64,8.45c0,1.93,0.45,3.73,1.33,5.34c0.88,1.6,2.16,3.06,3.79,4.35c1.61,1.28,4.29,2.84,7.95,4.64
	c2.58,1.27,4.39,2.31,5.39,3.09c0.99,0.77,1.73,1.59,2.21,2.43c0.47,0.83,0.71,1.7,0.71,2.58c0,1.51-0.61,2.8-1.85,3.95
	c-1.24,1.14-2.94,1.71-5.05,1.71c-2.76,0-5.38-1.1-7.78-3.28c-2.41-2.18-4.07-5.4-4.91-9.58l-0.35-0.29h-1.1l-0.36,0.36v15.19
	L364.88,63.04 M361.23,22.99l0.33-0.36v-1.1l-0.36-0.36h-10.44l-0.36,0.36v1.1l0.35,0.36c1.47,0.04,2.46,0.27,2.95,0.67
	c0.47,0.4,0.7,0.93,0.7,1.64c0,0.52-0.08,1.1-0.23,1.72c-0.16,0.64-0.58,1.85-1.26,3.6l-6.22,16.35l-6.99-18.16
	c-1.14-2.99-1.31-3.82-1.31-4.05c0-0.34,0.1-0.63,0.29-0.9c0.19-0.26,0.46-0.45,0.8-0.57c0.56-0.18,1.51-0.29,2.83-0.31l0.35-0.36
	v-1.1l-0.36-0.36h-19.49l-0.36,0.36v1.1l0.36,0.36c1.18,0,2.08,0.16,2.67,0.46c0.58,0.3,1.11,0.83,1.57,1.55
	c0.48,0.77,1.18,2.32,2.08,4.61l1.61,4.14l-5.92,14.3l-7.56-18.7c-1.18-2.96-1.43-4.16-1.43-4.64c0-0.46,0.19-0.85,0.57-1.16
	c0.27-0.23,0.95-0.51,2.58-0.55l0.35-0.36v-1.1l-0.36-0.36h-17.45l-0.36,0.36v1.1l0.33,0.36c1.16,0.11,1.98,0.47,2.45,1.08
	c0.51,0.66,1.44,2.64,2.77,5.9l13.23,32.84l0.33,0.23h1.1l0.33-0.22l10.63-25.1l9.65,25.09l0.34,0.23h1.16l0.34-0.23l12.61-33.19
	c0.73-1.83,1.71-4.29,1.85-4.56c0.37-0.68,0.79-1.19,1.25-1.51C359.97,23.23,360.54,23.04,361.23,22.99 M263.94,60.66l0.31-0.35
	c1.36-0.21,2.48-0.77,3.35-1.69c0.9-0.94,2.03-2.95,3.37-5.97l14.39-32.1l0.33-0.21h0.56l0.33,0.21l14.51,32.99
	c1.36,3.06,2.47,5.01,3.33,5.78c0.61,0.56,1.49,0.88,2.63,0.97l0.33,0.36v1.1l-0.36,0.36h-19.46l-0.36-0.36v-1.1l0.36-0.36h0.8
	c1.48,0,2.52-0.2,3.09-0.59c0.33-0.24,0.5-0.59,0.5-1.07c0-0.32-0.06-0.65-0.16-0.99c-0.02-0.1-0.14-0.45-0.88-2.19l-2.04-4.79
	h-13.74l-1.6,3.7c-0.53,1.25-0.8,2.29-0.8,3.09c0,1,0.39,1.71,1.19,2.18c0.33,0.2,1.26,0.47,3.79,0.66l0.33,0.36v1.1l-0.36,0.36
	H264.3l-0.36-0.36V60.66 M287.55,47.75l-5.45-12.59l-5.61,12.59H287.55z M232.77,62.12l-0.36-0.36v-1.1l0.36-0.36
	c1.79,0,3.01-0.16,3.62-0.48c0.59-0.31,1-0.71,1.24-1.19c0.16-0.34,0.37-1.31,0.37-3.94V28.59c0-2.63-0.2-3.6-0.37-3.95
	c-0.23-0.49-0.64-0.88-1.24-1.18c-0.62-0.31-1.83-0.47-3.61-0.47l-0.36-0.36v-1.1l0.36-0.36h17.54c5.83,0,10.09,1.07,12.66,3.17
	c2.59,2.12,3.9,4.81,3.9,7.99c0,2.69-0.85,5.02-2.52,6.94c-1.67,1.91-3.99,3.23-6.9,3.91c-1.88,0.47-5.06,0.71-9.45,0.72V54.7
	c0,2.63,0.2,3.6,0.37,3.95c0.23,0.49,0.65,0.88,1.26,1.18c0.63,0.31,1.84,0.47,3.59,0.47l0.36,0.36v1.1l-0.36,0.36H232.77
	 M247.99,40.88c0.48,0.03,0.85,0.04,1.12,0.04c2.3,0,4.09-0.68,5.31-2.03c1.23-1.36,1.86-3.52,1.86-6.42c0-2.88-0.62-5-1.86-6.31
	c-1.23-1.3-3.11-1.96-5.58-1.96h-0.86V40.88 M208.14,107.16c2.5-0.24,4.89-0.43,7.19,1.21c-0.33,0.23-0.72,0.51-1.07,0.74
	c0.87,2.12,0.03,3.54-2.33,4.27c-0.86,0.27-1.67,0.69-2.53,0.94c-0.85,0.25-1.76,0.63-2.59,0.52c-1.95-0.24-3.86-0.81-5.8-1.08
	c-1.27-0.17-1.78-0.88-2.36-1.91c-0.5-0.88-1.43-1.68-2.37-2.12l-0.39-0.16c4.89-0.17,7.91-0.35,7.91-0.35h-54.41
	c0.01,0,12.18-0.9,27.2-0.9c5.1,0,9.86,0.11,13.94,0.24c-0.41-0.25-0.8-0.56-1.17-0.95c-0.87-0.92-1.78-1.86-2.84-2.53
	c-4.77-3.01-9.58-5.92-14.39-8.86c-1.86-1.14-4.01-1.96-5.55-3.42c-1.35-1.28-2.77-2.02-4.46-2.53c-1.67-0.5-3.32-1.05-4.97-1.58
	c3.01-0.06,5.26-0.26,5.26-0.26h-13.64c0,0,3.05-0.34,6.82-0.34c0.48,0,0.95,0.01,1.4,0.01c0.28-1.96,0.13-2.69-0.66-3.37
	c-1.64-1.43-3.27-2.87-4.92-4.29c-1.06-0.92-2.08-1.28-3.56-0.54c-2.33,1.17-4.82,2.03-7.26,2.98c-0.69,0.26-1.43,0.37-2.42,0.62
	c0.21-0.5,0.33-0.68,0.37-0.88c0.1-0.52,0.17-1.04,0.25-1.57c-0.5,0-1.03-0.11-1.5,0.02c-1.64,0.44-3.27,0.95-4.89,1.45
	c-2.33,0.71-4.64,1.52-7,2.13c-1.67,0.43-3.42,0.58-5.13,0.86l0.14-0.5c-0.64-0.51-1.22-1.18-1.95-1.48
	c-1.13-0.46-2.3-0.81-3.47-1.18c6.53-0.17,11.1-0.5,11.1-0.5H89.37c0,0,8.22-0.76,18.36-0.76c1.25,0,2.47,0.01,3.64,0.03
	c-1.6-0.58-3.2-1.17-4.83-1.63c-1.33-0.38-2.78-0.36-4.48-0.56c0.53-0.49,0.8-0.73,1.16-1.06c-2.54-1.14-4.94-2.28-7.4-3.27
	c-1.11-0.45-2.45-0.38-3.52-0.9c-2.55-1.25-5.25-1.68-8.01-1.79c-2.07-0.08-3.82,0.7-5.15,2.38c-1.25,1.58-2.57,3.11-3.87,4.65
	c-2.34,2.77-4.73,5.52-7.03,8.32c-0.56,0.69-0.88,1.57-1.31,2.37l-0.25-0.09c0.13-0.65,0.27-1.31,0.41-1.97
	c-0.26-0.04-0.37-0.1-0.43-0.07c-3.81,2.1-8,3.2-12.07,4.61c-1.41,0.49-2.7,0.42-4.09,0.2c-1.73-0.27-3.47-0.48-5.21-0.61
	c-1.33-0.1-1.6,0.44-0.98,1.64c0.2,0.39,0.36,0.8,0.52,1.21c1.17,3,1.69,6.15,2.06,9.33c0.25,2.17,0.22,4.3-0.76,6.04
	c-1.02-0.21-1.84-0.4-2.66-0.54c-1.24-0.2-2.48-0.37-2.88-1.85c-0.18-0.67-0.36-1.33-0.55-2c3.16-0.05,5.54-0.26,5.54-0.26H31.92
	c0,0,3.05-0.35,6.82-0.35c0.38,0,0.75,0,1.11,0.01c-0.25-0.93-0.5-1.85-0.75-2.78c2.03-0.02,3.6-0.14,3.6-0.14h-8.25
	c0,0,1.85-0.18,4.13-0.18l0.44,0c-0.29-1.1-0.58-2.19-0.85-3.29c-0.26-1.08-0.27-2.24-0.28-3.36c-0.01-1.6-1.37-3.16-2.99-3.28
	c-0.7-0.05-1.41-0.04-2.11,0c-1.41,0.08-2.41,0.81-2.93,2.09c-1.23,3.04-2.32,6.14-3.63,9.15c-1.76,4.04-3.65,8.02-5.57,11.99
	c-0.36,0.74-1.03,1.47-1.76,1.84c-1.67,0.87-3.13,1.88-3.94,3.65c-0.02,0.04-0.15,0.02-0.46,0.04c0.16-0.53,0.32-0.99,0.43-1.47
	c0.09-0.37,0.27-0.84,0.13-1.13c-0.51-1.01-1.08-1.99-1.73-2.91c-0.81-1.14-0.71-2.72,0.18-3.79c0.27-0.32,0.23-1.03,0.1-1.49
	c-0.18-0.64-0.51-1.25-0.8-1.85h0.39c3.77,0,6.82-0.27,6.82-0.27H6.39c0,0,3.05-0.35,6.82-0.35h0.33c2.83-1.38,4.82-3.37,5.87-6.31
	c0.82-2.3,1.84-4.55,2.54-6.89c0.7-2.34,1.33-4.75,0.9-7.25c-0.36-2.1-0.07-2.71,2.03-3.14c1.88-0.39,3.81-0.53,5.71-0.79
	c0.53-0.07,1.06-0.15,1.72-0.23c-0.3-0.74-0.51-1.26-0.72-1.78c-0.22-0.53-0.46-1.04-0.66-1.58c-0.57-1.56,0.09-2.87,1.74-3.14
	c1.55-0.26,3.14-0.27,4.71-0.43c2.39-0.24,4.86-0.22,7.14-0.85c3.08-0.85,3.1-1.78,1.07-4.36c-1.01-1.29-1.61-2.91-2.56-4.69
	c1.96,0.25,1.96-0.63,1.77-1.76c-0.21-1.25-0.3-2.52-0.43-3.78c-0.36-3.63-0.38-7.17,1.97-10.32c1.67-2.23,1.36-4.93-0.44-7.06
	c-1.58-1.86-3.86-2.28-5.95-3.12c-1.32-0.54-3.17,0.14-3.95-1.7l-0.61-0.15c-0.78-0.12-1.91,0.58-2.1-0.91l-0.48-0.11
	c-1.19,0.2-1.24-0.51-1.02-1.31c-2.91-1.42-5.76-2.75-8.55-4.19c-1.22-0.63-1.19-0.88-0.12-1.67c-2.11-3.75-6.14-5.2-9.38-7.77
	c0.38-0.17,0.67-0.3,1.14-0.51c-0.92-1.25-1.75-2.42-2.63-3.55c-2.3-2.92-4.68-5.8-6.93-8.76C4.84,8.7,4.78,7.77,4.53,6.98
	c0.79,0.06,1.75-0.14,2.34,0.24c1.65,1.05,3.24,2.23,4.66,3.57c2.36,2.22,4.46,4.73,6.89,6.86c3.32,2.92,6.85,5.6,10.31,8.36
	c1.05,0.84,2.1,1.76,3.3,2.31c2.16,0.99,4.55,1.52,6.65,2.61c4.27,2.2,8.48,4.54,12.58,7.05c1.79,1.1,3.49,1.26,5.39,0.83
	c1.57-0.35,3.14-0.77,4.73-1.02c2.35-0.38,4.73-0.63,7.31-0.97c-0.45-0.65-0.78-1.11-1.24-1.75c2.37,0.73,4.49,1.57,6.68,2.03
	c3.28,0.68,6.64,0.95,9.92,1.65c4.78,1.03,9.6,1.63,14.46,1.73c3.54,0.07,7.1-0.3,10.64-0.49c1.79-0.1,3.62-0.05,5.37-0.38
	c1.09-0.21,2.18-0.43,3.28-0.65c0.42,0,0.84,0,1.26,0c16.81,0,30.44-1,30.44-1H88.62c0,0,13.63-1.26,30.44-1.26
	c3.08,0,6.06,0.04,8.86,0.11c0.79-0.17,1.58-0.35,2.38-0.53c1.44-0.32,3-0.51,4.09-1.78c-0.43-0.36-0.76-0.64-0.84-0.71
	c3.91-0.13,7.94-0.15,11.96-0.46c2.33-0.18,4.7-0.63,6.91-1.36c1.99-0.66,3.96-1.38,5.92-2.13l0.58,0c6.09,0,11.02-0.44,11.02-0.44
	h-22.04c0,0,4.93-0.56,11.02-0.56c0.65,0,1.29,0.01,1.92,0.02c1.28-0.51,2.56-1.03,3.83-1.56c0.86-0.36,1.74-1.37,1.99-2.26
	c0.16-0.55-0.76-1.51-1.35-2.14c-0.49-0.53-1.24-0.82-1.82-1.29c-0.72-0.59-1.37-1.25-2.05-1.88c0.51-0.25,0.84-0.24,1.15-0.15
	c1.26,0.35,2.5,0.78,3.78,1.07c2.73,0.61,5.47,1.16,8.21,1.69c0.93,0.18,1.94,0.5,2.8,0.29c1.96-0.49,3.79-0.32,5.44,0.74
	c3.46,2.23,6.84,4.57,10.23,6.89c0.95,0.65,1.26,1.57,1.45,2.77c0.23,1.49,0.13,3.21,1.72,4.29c2.93,1.98,5.79,4.07,8.66,6.14
	c1.03,0.74,1,1.37,0.07,2.2c-1,0.9-1.95,1.86-2.94,2.77c-0.7,0.64-1.36,1.63-2.17,1.79c-1.56,0.29-3.22,0.14-4.83,0.08
	c-0.8-0.03-1.59-0.27-2.38-0.41l-0.14,0.38c-0.07-0.46-0.14-0.92-0.18-1.22c-1.83-0.89-3.53-1.72-5.45-2.65
	c-0.04,0.03-0.4,0.24-0.76,0.45l0.03-0.37c-0.92-0.21-1.84-0.41-3.04-0.68c0.39,0.78,0.6,1.22,0.81,1.66h1.49l-0.28,0.33
	c0.52,0.61,1.08,1.18,1.53,1.84c0.51,0.73,0.84,1.58,1.38,2.28c0.39,0.51,0.99,0.86,1.5,1.28l-0.18,0.33h1.48
	c-0.22,0.51-0.39,0.9-0.59,1.35c0.99,0.5,0.86,1.36,0.31,1.93c-0.61,0.63-1.33,1.49-2.48,0.81c-1.14-0.66-2.25-1.42-3.48-1.85
	c-1.16-0.4-1.83-1.06-2.31-2.13c-0.26-0.57-0.65-1.28-1.16-1.51c-2.78-1.21-5.63-2.31-8.76-1.51c-0.56,0.14-1.18,0.43-1.56,0.85
	c-1.5,1.66-2.91,3.4-4.36,5.09c-1.54,1.8-1.67,3.19-0.49,5.28c0.17,0.3,0.38,0.62,0.45,0.95c0.55,2.85,2.29,3.59,5.06,3.32
	c4.4-0.42,7.96,1.51,10.93,4.66c1.2,1.27,2.41,2.54,3.72,3.69c2.28,2,4.57,4.01,5.85,6.82c0.97,2.13,2.53,4.16,1.73,6.76l-0.33,0.29
	c-0.21-0.29-0.41-0.55-0.38-0.51c-1.03-0.09-1.9,0.07-2.5-0.26c-2.75-1.5-5.44-3.13-8.13-4.75c-0.23-0.14-0.38-0.48-0.47-0.75
	c-0.23-0.71-0.44-1.43-0.64-2.15c2.89-0.03,5.14-0.23,5.14-0.23H174.7c0,0,2.61-0.3,5.83-0.3l0.54,0l-0.03-0.1
	c-0.25-0.87-2.98-3.04-3.86-2.99c-0.32,0.02-0.7,0.18-0.93,0.41c-0.67,0.66-1.24,0.49-1.99,0.07c-1.11-0.62-2.33-1.05-3.61-1.61
	c-0.08,0.47-0.16,0.69-0.15,0.89c0.05,1.66,1,2.77,2.19,3.83c3.94,3.54,7.73,7.24,11.7,10.73c6.43,5.65,13.44,10.53,20.54,15.26
	C205.89,106.49,207.11,107.25,208.14,107.16"/>
</svg>
