<?xml version="1.0" encoding="utf-8"?>
<!-- Generator: Adobe Illustrator 25.4.1, SVG Export Plug-In . SVG Version: 6.00 Build 0)  -->
<svg version="1.1" id="Layer_1" xmlns="http://www.w3.org/2000/svg" xmlns:xlink="http://www.w3.org/1999/xlink" x="0px" y="0px"
	 viewBox="0 0 354 500" style="enable-background:new 0 0 354 500;" xml:space="preserve">
<style type="text/css">
	.st0{fill:#3FA9F5;}
	.st1{fill:#D1D7E5;}
	.st2{fill:#2A3B64;}
	.st3{fill:#FFFFFF;}
</style>
<g>
	<path class="st0" d="M8.21,426.44v47.22c0,11.86,11.58,21.47,25.86,21.47h285.86c14.28,0,25.86-9.61,25.86-21.47v-47.22H8.21z"/>
	<path class="st1" d="M319.93,97.89c11.23,0,20.36,7.17,20.36,15.97v307.08H13.71V113.87c0-8.81,9.14-15.97,20.36-15.97H319.93
		 M319.93,92.4H34.07c-14.28,0-25.86,9.61-25.86,21.47v312.57h337.58V113.87C345.79,102.01,334.21,92.4,319.93,92.4L319.93,92.4z"/>
	<g>
		<g>
			<path class="st1" d="M249.62,77.48c0-40.11-32.51-72.62-72.62-72.62s-72.62,32.51-72.62,72.62c0,18.92,7.24,36.14,19.09,49.07
				h107.06C242.38,113.63,249.62,96.4,249.62,77.48z"/>
		</g>
		<g>
			<path class="st2" d="M170.97,50.09c0,0.35,0,0.69,0,1.03c0.02,4.21,0.07,8.43,0.07,12.64c0,14.93,0,29.85,0,44.77
				c0,0.36,0.02,0.72,0,1.08c-0.14,1.97-0.78,3.7-2.7,4.52c-2.03,0.85-4.07,0.73-5.91-0.54c-1.35-0.93-1.73-2.37-1.73-3.94
				c0-8.44,0-16.87,0-25.31c0-0.78,0-1.56-0.07-2.33c-0.02-0.35-0.24-0.69-0.35-1.03l-0.26,0.01c-0.09,0.22-0.24,0.44-0.26,0.66
				c-0.05,0.65-0.09,1.31-0.09,1.97c0,8.62,0.02,17.23,0,25.85c-0.02,0.85-0.12,1.75-0.4,2.55c-0.8,2.19-3,3.04-5.49,2.78
				c-2.81-0.3-4.16-1.97-4.19-4.97c-0.02-7.99,0-15.98-0.02-23.96c-0.02-13.4-0.05-26.81-0.07-40.21c0-0.48,0-0.96-0.02-1.44
				c-0.05-1.23-0.5-1.68-1.73-1.68c-1.99,0-4,0.05-6.01,0.07c-3.76,0.02-7.54,0.07-11.3,0.03c-0.97-0.01-1.99-0.21-2.89-0.54
				c-1.75-0.63-2.7-2.14-2.65-3.88c0.07-1.69,1.18-3.21,2.89-3.73c0.8-0.25,1.7-0.39,2.55-0.39c11.78-0.07,23.58-0.07,35.36-0.17
				c4.19-0.04,7.05,1.85,8.87,5.52c2.08,4.15,4.19,8.27,6.24,12.42c0.33,0.65,0.76,0.88,1.47,0.87c3.5-0.04,7-0.01,10.5-0.04
				c1.44-0.01,2.63,0.51,3.24,1.82c0.69,1.43,0.59,2.92-0.28,4.27c-0.54,0.85-1.47,1.15-2.41,1.15c-4.07,0.01-8.14-0.03-12.2-0.05
				c-1.28,0-2.58-0.09-3.85,0.02c-0.8,0.07-1.18-0.23-1.51-0.9c-1.35-2.73-2.72-5.45-4.12-8.17c-0.12-0.27-0.26-0.52-0.4-0.78
				L170.97,50.09"/>
			<path class="st2" d="M202.02,114.78c-0.43,0-0.85-0.04-1.25,0.01c-1.8,0.2-3.03-0.7-4.02-2.04c-0.54-0.72-1.02-1.48-1.51-2.22
				c-0.95-1.39-1.09-2.86-0.52-4.44c0.26-0.76,0.45-1.55,0.71-2.32c0.57-1.81,0.59-3.56-0.38-5.28c-0.54-0.93-0.92-1.94-1.35-2.93
				c-0.85-2.02-0.9-4.08-0.19-6.13c0.33-0.9,0.21-1.59-0.28-2.41c-1.3-2.08-2.46-4.24-3.67-6.37c-0.57-1.01-0.47-1.88,0.26-2.41
				c0.71-0.54,1.51-0.38,2.37,0.5c1.44,1.51,2.89,3.02,4.33,4.54c0.35,0.37,0.66,0.4,1.18,0.28c1.61-0.39,3.24-0.77,4.9-0.94
				c3.9-0.4,7.8-0.63,11.71-1.02c1.3-0.13,2.55-0.58,3.85-0.81c0.33-0.06,0.85,0.04,1.09,0.27c3.05,3,6.05,6.04,9.11,9.05
				c0.38,0.38,0.47,0.73,0.17,1.18c-3.24,4.55-3.5,9.88-4,15.15c-0.07,0.77-0.05,1.56-0.12,2.33c-0.05,0.67,0.14,0.95,0.87,1.15
				c1.02,0.28,2.01,0.77,2.89,1.35c0.73,0.51,1.09,1.39,0.78,2.31c-0.26,0.86-1.06,1.12-1.84,1.16c-1.47,0.09-2.93,0.17-4.4,0.06
				c-1.8-0.13-3-1.54-3.26-3.82c-0.35-3.54-0.61-7.09-0.95-10.63c-0.07-0.98-0.19-1.97-0.38-2.93c-0.07-0.31-0.47-0.76-0.76-0.77
				c-2.51-0.16-5.01-0.29-7.52-0.33c-1.3-0.02-2.63,0.12-3.93,0.22c-0.59,0.05-0.9,0.37-0.99,1.03c-0.45,2.94-1.7,5.61-3.12,8.17
				c-0.76,1.36-0.52,2.52,0.21,3.69c0.17,0.28,0.59,0.46,0.95,0.56c0.71,0.22,1.47,0.28,2.15,0.55c1.09,0.44,1.66,1.67,1.4,2.81
				c-0.19,0.8-0.73,1.24-1.51,1.32c-0.99,0.1-1.96,0.14-2.96,0.21V114.78"/>
			<path class="st2" d="M128.9,98.52h0.05c-0.09-3.74-0.19-7.48-0.28-11.22c-0.02-0.97-0.52-1.64-1.13-1.52
				c-0.88,0.17-0.92,0.89-0.92,1.61v0.09c0.31,7.17,0.59,14.35,0.9,21.52c0.02,0.41,0.07,0.84,0.24,1.22
				c0.09,0.23,0.4,0.5,0.64,0.51c0.21,0,0.54-0.27,0.61-0.49c0.14-0.38,0.17-0.81,0.17-1.22
				C129.09,105.51,128.97,102.01,128.9,98.52 M124.55,108.92c-0.54-7.31-1.06-14.47-1.63-21.63c-0.02-0.31-0.09-0.7-0.28-0.91
				c-0.26-0.27-0.73-0.61-0.99-0.54c-0.33,0.1-0.66,0.56-0.78,0.93c-0.12,0.37-0.02,0.83,0.02,1.24c0.71,7.08,1.4,14.16,2.13,21.24
				c0.02,0.38,0.12,0.78,0.31,1.09l0.71,0.37c0.21-0.05,0.47-0.38,0.5-0.62C124.62,109.66,124.55,109.2,124.55,108.92 M140.25,87.4
				l-0.02-0.47c-0.21-0.41-0.52-0.77-0.78-1.15c-0.38,0.27-0.85,0.48-1.11,0.84c-0.21,0.31-0.19,0.8-0.21,1.21
				c-0.5,7.07-0.97,14.13-1.44,21.2c-0.05,0.66-0.26,1.6,0.64,1.67c0.9,0.07,0.88-0.9,0.95-1.56c0.21-1.93,0.35-3.87,0.52-5.8
				C139.26,98.11,139.75,92.88,140.25,87.4 M132.4,98.44h-0.28c0,3.68,0,7.36,0,11.04c0,0.24-0.02,0.52,0.09,0.7
				c0.14,0.23,0.4,0.56,0.59,0.55c0.26-0.02,0.61-0.27,0.71-0.51c0.17-0.37,0.17-0.81,0.17-1.23c0.28-7.08,0.52-14.17,0.78-21.25
				c0.05-1.29-0.24-1.9-0.92-1.95c-0.71-0.05-1.14,0.62-1.14,1.89C132.37,91.26,132.4,94.85,132.4,98.44 M130.48,81.78
				c4.42,0,8.85,0,13.29,0c1.16,0,1.16,0.04,1.02,1.15c-0.88,7.03-1.75,14.05-2.65,21.08c-0.28,2.31-0.52,4.64-0.97,6.92
				c-0.19,0.98-0.76,1.93-1.28,2.81c-0.47,0.78-1.32,1.11-2.25,1.11c-4.66,0.01-9.32,0.02-14,0c-1.68-0.01-3.17-1.48-3.52-3.62
				c-0.47-2.83-0.85-5.67-1.23-8.51c-0.71-5.18-1.4-10.36-2.08-15.55c-0.21-1.54-0.38-3.08-0.64-4.62
				c-0.12-0.85,0.43-0.77,0.95-0.77c4.28,0,8.56,0,12.82,0H130.48z"/>
			<path class="st2" d="M149.88,22.9c0-5.1,4.04-9.21,9.13-9.23c5.08-0.03,9.22,4.06,9.25,9.11c0.02,5.12-4.09,9.24-9.22,9.24
				C153.99,32.01,149.9,27.93,149.88,22.9"/>
			<path class="st2" d="M231.87,84.63c-0.69,1.5-1.35,2.91-2.08,4.51c-1.02-1-1.84-1.8-2.67-2.62c-2.03-2.05-4.09-4.11-6.15-6.15
				c-0.36-0.36-0.69-0.64-0.05-1.12c3.9-2.94,6.81-6.76,9.39-10.86c0.38-0.63,0.78-1.28,1.3-1.81c0.78-0.82,1.77-0.5,1.94,0.64
				c0.09,0.57,0.05,1.2-0.07,1.77c-0.4,1.82-0.14,3.33,1.3,4.73c2.89,2.85,5.65,5.85,8.44,8.8c1.23,1.28,1.21,1.72-0.12,2.94
				c-0.45,0.42-0.95,0.82-1.47,1.17c-2.08,1.39-4.21,1.61-6.39,0.22C234.12,86.11,233.01,85.37,231.87,84.63"/>
			<path class="st2" d="M128.14,52.76c1.7-0.39,2.98,0.28,4.02,1.57c1.49,1.85,2.72,3.83,3.26,6.2c0.95,4.04-1.99,7.46-6.15,7.17
				c-1.77-0.12-3.38-0.51-4.66-1.78c-1.63-1.61-1.75-3.62-1.21-5.68c0.78-2.99,2.29-5.56,4.75-7.5L128.14,52.76z"/>
			<path class="st2" d="M198.6,57.95c0.45,0.34,0.64,0.46,0.8,0.62c6.22,6.2,12.42,12.4,18.61,18.61c0.71,0.71,0.52,1.66-0.43,1.94
				c-0.24,0.06-0.61-0.17-0.8-0.37c-3.45-3.41-6.86-6.83-10.29-10.26c-2.81-2.8-5.63-5.6-8.42-8.42c-0.21-0.21-0.43-0.65-0.33-0.87
				C197.91,58.75,198.29,58.37,198.6,57.95"/>
			<path class="st2" d="M129.23,46.05c1.06,0.22,1.94,0.3,2.34,1.28c0.12,0.27,0.59,0.46,0.92,0.56c0.73,0.24,0.73,0.7,0.45,1.25
				c-0.24,0.42-0.52,0.81-0.76,1.22c-0.45,0.83-0.95,1.27-2.03,0.76c-0.57-0.27-1.47-0.05-2.13,0.15c-0.52,0.15-0.78,0.13-1.04-0.29
				c-0.4-0.66-0.83-1.31-1.21-1.98c-0.31-0.5-0.24-0.91,0.4-1.1c0.61-0.19,1.06-0.56,1.51-1.07
				C128.09,46.4,128.8,46.25,129.23,46.05"/>
			<path class="st2" d="M128.17,52.74c-0.31-0.01-0.64-0.03-0.95-0.04c0.17-0.31,0.26-0.73,0.52-0.92c0.95-0.69,1.99-0.82,3-0.16
				c0.33,0.22,0.52,0.64,0.71,1.07c-1.18-0.24-2.25-1.04-3.31,0.07L128.17,52.74z"/>
		</g>
	</g>
	<g>
		<path d="M28.95,162.33h-3.86V140h3.86V162.33z"/>
		<path d="M36.82,145.74l0.11,1.92c1.23-1.48,2.84-2.22,4.83-2.22c3.46,0,5.21,1.98,5.27,5.93v10.96H43.3v-10.75
			c0-1.05-0.23-1.83-0.68-2.34c-0.46-0.51-1.2-0.76-2.23-0.76c-1.5,0-2.62,0.68-3.36,2.04v11.81h-3.73v-16.59H36.82z"/>
		<path d="M55.49,141.7v4.03h2.93v2.76h-2.93v9.26c0,0.63,0.12,1.09,0.38,1.37s0.7,0.42,1.34,0.42c0.43,0,0.86-0.05,1.3-0.15v2.88
			c-0.85,0.23-1.67,0.35-2.45,0.35c-2.86,0-4.29-1.58-4.29-4.74v-9.4h-2.73v-2.76h2.73v-4.03H55.49z"/>
		<path d="M69.95,149.14c-0.49-0.08-1-0.12-1.52-0.12c-1.71,0-2.86,0.65-3.45,1.96v11.35h-3.73v-16.59h3.56l0.09,1.85
			c0.9-1.44,2.15-2.16,3.74-2.16c0.53,0,0.97,0.07,1.32,0.21L69.95,149.14z"/>
		<path d="M71.06,153.88c0-1.62,0.32-3.09,0.97-4.39c0.64-1.3,1.55-2.31,2.71-3.01c1.17-0.7,2.5-1.05,4.02-1.05
			c2.24,0,4.06,0.72,5.45,2.16c1.4,1.44,2.15,3.35,2.26,5.73l0.02,0.87c0,1.64-0.31,3.1-0.94,4.39c-0.63,1.29-1.53,2.28-2.7,2.99
			c-1.17,0.71-2.52,1.06-4.06,1.06c-2.34,0-4.21-0.78-5.62-2.34c-1.41-1.56-2.11-3.64-2.11-6.23V153.88z M74.78,154.2
			c0,1.71,0.35,3.04,1.06,4.01c0.71,0.97,1.69,1.45,2.94,1.45s2.24-0.49,2.94-1.47c0.7-0.98,1.05-2.42,1.05-4.31
			c0-1.68-0.36-3.01-1.08-3.99c-0.72-0.98-1.7-1.47-2.94-1.47c-1.22,0-2.18,0.48-2.9,1.45C75.14,150.84,74.78,152.28,74.78,154.2z"
			/>
		<path d="M113.02,143.13h-6.96v19.2h-3.85v-19.2h-6.9V140h17.71V143.13z"/>
		<path d="M111.7,153.88c0-1.62,0.32-3.09,0.97-4.39c0.64-1.3,1.55-2.31,2.71-3.01c1.17-0.7,2.5-1.05,4.02-1.05
			c2.24,0,4.06,0.72,5.45,2.16c1.4,1.44,2.15,3.35,2.26,5.73l0.02,0.87c0,1.64-0.31,3.1-0.94,4.39c-0.63,1.29-1.53,2.28-2.7,2.99
			c-1.17,0.71-2.52,1.06-4.06,1.06c-2.34,0-4.21-0.78-5.62-2.34c-1.41-1.56-2.11-3.64-2.11-6.23V153.88z M115.43,154.2
			c0,1.71,0.35,3.04,1.06,4.01c0.71,0.97,1.69,1.45,2.94,1.45s2.24-0.49,2.94-1.47c0.7-0.98,1.05-2.42,1.05-4.31
			c0-1.68-0.36-3.01-1.08-3.99c-0.72-0.98-1.7-1.47-2.94-1.47c-1.22,0-2.18,0.48-2.9,1.45C115.79,150.84,115.43,152.28,115.43,154.2
			z"/>
		<path d="M142.34,154.05v8.28h-3.88V140H147c2.49,0,4.47,0.65,5.94,1.95s2.2,3.02,2.2,5.16c0,2.19-0.72,3.89-2.15,5.11
			s-3.45,1.83-6.03,1.83H142.34z M142.34,150.92H147c1.38,0,2.43-0.32,3.16-0.97c0.73-0.65,1.09-1.59,1.09-2.81
			c0-1.21-0.37-2.17-1.1-2.89s-1.75-1.09-3.04-1.11h-4.77V150.92z"/>
		<path d="M157.27,153.88c0-1.62,0.32-3.09,0.97-4.39c0.64-1.3,1.55-2.31,2.71-3.01c1.17-0.7,2.5-1.05,4.02-1.05
			c2.24,0,4.06,0.72,5.45,2.16c1.4,1.44,2.15,3.35,2.26,5.73l0.02,0.87c0,1.64-0.31,3.1-0.94,4.39c-0.63,1.29-1.53,2.28-2.7,2.99
			c-1.17,0.71-2.52,1.06-4.06,1.06c-2.34,0-4.21-0.78-5.62-2.34c-1.41-1.56-2.11-3.64-2.11-6.23V153.88z M161,154.2
			c0,1.71,0.35,3.04,1.06,4.01c0.71,0.97,1.69,1.45,2.94,1.45s2.24-0.49,2.94-1.47c0.7-0.98,1.05-2.42,1.05-4.31
			c0-1.68-0.36-3.01-1.08-3.99c-0.72-0.98-1.7-1.47-2.94-1.47c-1.22,0-2.18,0.48-2.9,1.45C161.36,150.84,161,152.28,161,154.2z"/>
		<path d="M180.52,141.7v4.03h2.93v2.76h-2.93v9.26c0,0.63,0.12,1.09,0.38,1.37c0.25,0.28,0.7,0.42,1.34,0.42
			c0.43,0,0.87-0.05,1.3-0.15v2.88c-0.85,0.23-1.67,0.35-2.45,0.35c-2.86,0-4.29-1.58-4.29-4.74v-9.4h-2.73v-2.76h2.73v-4.03H180.52
			z"/>
		<path d="M190.96,141.7v4.03h2.93v2.76h-2.93v9.26c0,0.63,0.12,1.09,0.38,1.37c0.25,0.28,0.7,0.42,1.34,0.42
			c0.43,0,0.86-0.05,1.3-0.15v2.88c-0.85,0.23-1.67,0.35-2.45,0.35c-2.86,0-4.29-1.58-4.29-4.74v-9.4h-2.73v-2.76h2.73v-4.03H190.96
			z"/>
		<path d="M202.54,156.99l3.37-11.25h3.97l-6.59,19.1c-1.01,2.79-2.73,4.19-5.15,4.19c-0.54,0-1.14-0.09-1.79-0.28v-2.9l0.71,0.05
			c0.94,0,1.65-0.17,2.12-0.51c0.48-0.34,0.85-0.92,1.13-1.72l0.54-1.42l-5.83-16.5h4.02L202.54,156.99z"/>
		<path d="M235.41,143.13h-6.96v19.2h-3.85v-19.2h-6.9V140h17.71V143.13z"/>
		<path d="M245.67,149.14c-0.49-0.08-1-0.12-1.52-0.12c-1.71,0-2.86,0.65-3.45,1.96v11.35h-3.73v-16.59h3.56l0.09,1.85
			c0.9-1.44,2.15-2.16,3.74-2.16c0.53,0,0.97,0.07,1.32,0.21L245.67,149.14z"/>
		<path d="M257.48,162.33c-0.16-0.32-0.31-0.83-0.43-1.55c-1.19,1.24-2.64,1.86-4.35,1.86c-1.67,0-3.03-0.48-4.08-1.43
			s-1.58-2.13-1.58-3.53c0-1.77,0.66-3.13,1.97-4.07s3.19-1.42,5.63-1.42h2.28v-1.09c0-0.86-0.24-1.55-0.72-2.06
			s-1.21-0.77-2.19-0.77c-0.85,0-1.54,0.21-2.08,0.64c-0.54,0.42-0.81,0.96-0.81,1.62h-3.73c0-0.91,0.3-1.76,0.91-2.55
			c0.6-0.79,1.42-1.41,2.46-1.86c1.04-0.45,2.19-0.67,3.47-0.67c1.94,0,3.49,0.49,4.65,1.46s1.75,2.35,1.78,4.12v7.48
			c0,1.49,0.21,2.68,0.63,3.57v0.26H257.48z M253.38,159.64c0.74,0,1.43-0.18,2.08-0.54s1.14-0.84,1.46-1.44v-3.13h-2.01
			c-1.38,0-2.42,0.24-3.11,0.72s-1.04,1.16-1.04,2.04c0,0.72,0.24,1.29,0.71,1.71C251.95,159.43,252.59,159.64,253.38,159.64z"/>
		<path d="M264.56,141.43c0-0.57,0.18-1.05,0.54-1.43c0.36-0.38,0.88-0.57,1.56-0.57s1.2,0.19,1.56,0.57
			c0.37,0.38,0.55,0.85,0.55,1.43c0,0.56-0.18,1.03-0.55,1.4s-0.89,0.56-1.56,0.56s-1.19-0.19-1.56-0.56
			C264.74,142.46,264.56,141.99,264.56,141.43z M268.52,162.33h-3.73v-16.59h3.73V162.33z"/>
		<path d="M276.03,145.74l0.11,1.92c1.23-1.48,2.84-2.22,4.83-2.22c3.46,0,5.21,1.98,5.27,5.93v10.96h-3.73v-10.75
			c0-1.05-0.23-1.83-0.68-2.34s-1.2-0.76-2.23-0.76c-1.5,0-2.62,0.68-3.36,2.04v11.81h-3.73v-16.59H276.03z"/>
		<path d="M290.04,141.43c0-0.57,0.18-1.05,0.54-1.43c0.36-0.38,0.88-0.57,1.56-0.57s1.2,0.19,1.56,0.57
			c0.37,0.38,0.55,0.85,0.55,1.43c0,0.56-0.18,1.03-0.55,1.4s-0.89,0.56-1.56,0.56s-1.19-0.19-1.56-0.56
			C290.23,142.46,290.04,141.99,290.04,141.43z M294,162.33h-3.73v-16.59H294V162.33z"/>
		<path d="M301.51,145.74l0.11,1.92c1.23-1.48,2.84-2.22,4.83-2.22c3.46,0,5.21,1.98,5.27,5.93v10.96H308v-10.75
			c0-1.05-0.23-1.83-0.68-2.34s-1.2-0.76-2.23-0.76c-1.5,0-2.62,0.68-3.36,2.04v11.81H298v-16.59H301.51z"/>
		<path d="M314.87,153.91c0-2.58,0.61-4.63,1.82-6.17s2.82-2.31,4.82-2.31c1.89,0,3.38,0.66,4.46,1.98l0.17-1.67h3.36v16.08
			c0,2.18-0.68,3.89-2.03,5.15s-3.18,1.89-5.48,1.89c-1.22,0-2.41-0.25-3.57-0.76s-2.04-1.17-2.64-1.99l1.76-2.24
			c1.14,1.36,2.55,2.04,4.23,2.04c1.24,0,2.21-0.33,2.93-1s1.07-1.65,1.07-2.95v-1.12c-1.07,1.2-2.5,1.79-4.29,1.79
			c-1.94,0-3.53-0.77-4.76-2.32C315.48,158.78,314.87,156.64,314.87,153.91z M318.58,154.23c0,1.67,0.34,2.98,1.02,3.93
			c0.68,0.96,1.62,1.43,2.83,1.43c1.5,0,2.62-0.64,3.34-1.93v-7.3c-0.71-1.26-1.81-1.89-3.31-1.89c-1.23,0-2.18,0.49-2.86,1.46
			S318.58,152.34,318.58,154.23z"/>
		<path d="M90.11,189.43c0,2.19-0.38,4.11-1.13,5.76s-1.84,2.92-3.24,3.8c-1.41,0.88-3.02,1.33-4.85,1.33
			c-1.81,0-3.42-0.44-4.84-1.33c-1.42-0.88-2.51-2.14-3.28-3.78c-0.77-1.64-1.16-3.52-1.17-5.66v-1.26c0-2.18,0.39-4.1,1.16-5.77
			c0.77-1.67,1.86-2.94,3.27-3.83c1.41-0.88,3.02-1.33,4.84-1.33c1.82,0,3.43,0.44,4.84,1.31c1.41,0.87,2.49,2.13,3.26,3.77
			c0.77,1.64,1.15,3.55,1.17,5.73V189.43z M86.23,188.27c0-2.47-0.47-4.37-1.4-5.69c-0.94-1.32-2.26-1.98-3.98-1.98
			c-1.68,0-2.99,0.66-3.93,1.97c-0.95,1.31-1.43,3.17-1.45,5.57v1.29c0,2.45,0.48,4.35,1.43,5.69c0.96,1.34,2.28,2.01,3.98,2.01
			c1.72,0,3.04-0.65,3.96-1.96s1.39-3.22,1.39-5.73V188.27z"/>
		<path d="M97.07,183.42l0.11,1.92c1.23-1.48,2.84-2.22,4.83-2.22c3.46,0,5.21,1.98,5.27,5.93v10.96h-3.73v-10.75
			c0-1.05-0.23-1.83-0.68-2.34c-0.46-0.51-1.2-0.76-2.23-0.76c-1.5,0-2.62,0.68-3.36,2.04v11.81h-3.73v-16.59H97.07z"/>
		<path d="M115.04,200.01h-3.73v-23.55h3.73V200.01z"/>
		<path d="M119.1,179.11c0-0.57,0.18-1.05,0.54-1.43c0.36-0.38,0.88-0.57,1.56-0.57c0.67,0,1.2,0.19,1.56,0.57
			c0.37,0.38,0.55,0.85,0.55,1.43c0,0.56-0.18,1.03-0.55,1.4c-0.37,0.37-0.89,0.56-1.56,0.56c-0.67,0-1.19-0.19-1.56-0.56
			S119.1,179.67,119.1,179.11z M123.06,200.01h-3.73v-16.59h3.73V200.01z"/>
		<path d="M130.57,183.42l0.11,1.92c1.23-1.48,2.84-2.22,4.83-2.22c3.46,0,5.21,1.98,5.27,5.93v10.96h-3.73v-10.75
			c0-1.05-0.23-1.83-0.68-2.34c-0.46-0.51-1.2-0.76-2.23-0.76c-1.5,0-2.62,0.68-3.36,2.04v11.81h-3.73v-16.59H130.57z"/>
		<path d="M151.88,200.32c-2.36,0-4.28-0.74-5.74-2.23c-1.47-1.49-2.2-3.47-2.2-5.94v-0.46c0-1.66,0.32-3.14,0.96-4.44
			c0.64-1.3,1.54-2.32,2.69-3.04c1.16-0.73,2.44-1.09,3.86-1.09c2.26,0,4,0.72,5.24,2.16c1.23,1.44,1.85,3.48,1.85,6.12v1.5H147.7
			c0.11,1.37,0.57,2.45,1.37,3.25c0.8,0.8,1.81,1.2,3.03,1.2c1.71,0,3.1-0.69,4.17-2.07l2.01,1.92c-0.66,0.99-1.55,1.76-2.66,2.31
			C154.51,200.04,153.26,200.32,151.88,200.32z M151.44,186.1c-1.02,0-1.85,0.36-2.48,1.07c-0.63,0.72-1.03,1.71-1.2,2.99h7.1v-0.28
			c-0.08-1.25-0.41-2.19-1-2.83C153.28,186.42,152.47,186.1,151.44,186.1z"/>
		<path d="M181.28,194.26c0-0.98-0.34-1.74-1.03-2.27c-0.69-0.53-1.94-1.07-3.73-1.61c-1.8-0.54-3.23-1.14-4.29-1.81
			c-2.03-1.28-3.05-2.94-3.05-5c0-1.8,0.73-3.28,2.2-4.45s3.37-1.75,5.71-1.75c1.55,0,2.94,0.29,4.16,0.86
			c1.22,0.57,2.17,1.39,2.87,2.45c0.7,1.06,1.04,2.23,1.04,3.52h-3.86c0-1.17-0.37-2.08-1.1-2.74c-0.73-0.66-1.78-0.99-3.14-0.99
			c-1.27,0-2.25,0.27-2.95,0.81c-0.7,0.54-1.05,1.3-1.05,2.27c0,0.82,0.38,1.5,1.13,2.05c0.76,0.55,2,1.08,3.74,1.59
			c1.74,0.52,3.13,1.1,4.19,1.76c1.05,0.66,1.83,1.42,2.32,2.27c0.49,0.85,0.74,1.85,0.74,3c0,1.86-0.71,3.34-2.14,4.44
			c-1.43,1.1-3.36,1.65-5.8,1.65c-1.62,0-3.1-0.3-4.45-0.9c-1.35-0.6-2.41-1.42-3.16-2.48s-1.13-2.28-1.13-3.68h3.88
			c0,1.27,0.42,2.25,1.26,2.94c0.84,0.7,2.04,1.04,3.6,1.04c1.35,0,2.36-0.27,3.04-0.82S181.28,195.16,181.28,194.26z"/>
		<path d="M195.51,200.32c-2.36,0-4.28-0.74-5.74-2.23s-2.2-3.47-2.2-5.94v-0.46c0-1.66,0.32-3.14,0.96-4.44
			c0.64-1.3,1.54-2.32,2.69-3.04c1.16-0.73,2.44-1.09,3.86-1.09c2.26,0,4,0.72,5.24,2.16c1.23,1.44,1.85,3.48,1.85,6.12v1.5h-10.84
			c0.11,1.37,0.57,2.45,1.37,3.25s1.81,1.2,3.03,1.2c1.71,0,3.1-0.69,4.17-2.07l2.01,1.92c-0.67,0.99-1.55,1.76-2.66,2.31
			C198.13,200.04,196.89,200.32,195.51,200.32z M195.06,186.1c-1.02,0-1.85,0.36-2.48,1.07c-0.63,0.72-1.03,1.71-1.2,2.99h7.1v-0.28
			c-0.08-1.25-0.41-2.19-1-2.83S196.1,186.1,195.06,186.1z"/>
		<path d="M208.56,183.42l0.11,1.73c1.17-1.36,2.76-2.04,4.78-2.04c2.22,0,3.74,0.85,4.55,2.54c1.21-1.7,2.9-2.54,5.09-2.54
			c1.83,0,3.19,0.51,4.09,1.52c0.89,1.01,1.35,2.5,1.37,4.48v10.9h-3.73v-10.79c0-1.05-0.23-1.82-0.69-2.32s-1.22-0.74-2.29-0.74
			c-0.85,0-1.54,0.23-2.08,0.68c-0.54,0.46-0.91,1.05-1.13,1.79l0.02,11.38h-3.73v-10.92c-0.05-1.95-1.05-2.93-2.99-2.93
			c-1.49,0-2.55,0.61-3.17,1.82v12.02h-3.73v-16.59H208.56z"/>
		<path d="M232.38,179.11c0-0.57,0.18-1.05,0.54-1.43c0.36-0.38,0.88-0.57,1.56-0.57s1.2,0.19,1.56,0.57
			c0.37,0.38,0.55,0.85,0.55,1.43c0,0.56-0.18,1.03-0.55,1.4s-0.89,0.56-1.56,0.56s-1.19-0.19-1.56-0.56
			C232.57,180.14,232.38,179.67,232.38,179.11z M236.34,200.01h-3.73v-16.59h3.73V200.01z"/>
		<path d="M243.85,183.42l0.11,1.92c1.23-1.48,2.84-2.22,4.83-2.22c3.46,0,5.21,1.98,5.27,5.93v10.96h-3.73v-10.75
			c0-1.05-0.23-1.83-0.68-2.34s-1.2-0.76-2.23-0.76c-1.5,0-2.62,0.68-3.36,2.04v11.81h-3.73v-16.59H243.85z"/>
		<path d="M267.77,200.01c-0.16-0.32-0.31-0.83-0.43-1.55c-1.19,1.24-2.64,1.86-4.35,1.86c-1.67,0-3.03-0.48-4.08-1.43
			s-1.58-2.13-1.58-3.53c0-1.77,0.66-3.13,1.97-4.07s3.19-1.42,5.63-1.42h2.28v-1.09c0-0.86-0.24-1.55-0.72-2.06
			s-1.21-0.77-2.19-0.77c-0.85,0-1.54,0.21-2.08,0.64c-0.54,0.42-0.81,0.96-0.81,1.62h-3.73c0-0.91,0.3-1.76,0.91-2.55
			c0.6-0.79,1.42-1.41,2.46-1.86c1.04-0.45,2.19-0.67,3.47-0.67c1.94,0,3.49,0.49,4.65,1.46s1.75,2.35,1.78,4.12v7.48
			c0,1.49,0.21,2.68,0.63,3.57v0.26H267.77z M263.68,197.33c0.74,0,1.43-0.18,2.08-0.54s1.14-0.84,1.46-1.44v-3.13h-2.01
			c-1.38,0-2.42,0.24-3.11,0.72s-1.04,1.16-1.04,2.04c0,0.72,0.24,1.29,0.71,1.71C262.25,197.11,262.88,197.33,263.68,197.33z"/>
		<path d="M283.54,186.82c-0.49-0.08-1-0.12-1.52-0.12c-1.71,0-2.86,0.65-3.45,1.96v11.35h-3.73v-16.59h3.56l0.09,1.85
			c0.9-1.44,2.15-2.16,3.74-2.16c0.53,0,0.97,0.07,1.32,0.21L283.54,186.82z"/>
	</g>
	<g>
		<path class="st2" d="M35.63,238.35l4.24-8.73h3.54l-6.17,11.64v6.78h-3.21v-6.78l-6.19-11.64h3.55L35.63,238.35z"/>
		<path class="st2" d="M43.71,241.07c0-1.34,0.27-2.55,0.8-3.62s1.28-1.9,2.24-2.48s2.07-0.87,3.31-0.87c1.85,0,3.35,0.59,4.5,1.78
			c1.15,1.19,1.77,2.77,1.87,4.73l0.01,0.72c0,1.35-0.26,2.56-0.78,3.62s-1.26,1.88-2.23,2.47c-0.97,0.58-2.08,0.87-3.35,0.87
			c-1.93,0-3.48-0.64-4.64-1.93c-1.16-1.29-1.74-3-1.74-5.14V241.07z M46.78,241.33c0,1.41,0.29,2.51,0.87,3.31
			c0.58,0.8,1.39,1.2,2.43,1.2c1.04,0,1.84-0.4,2.42-1.21s0.87-1.99,0.87-3.55c0-1.38-0.3-2.48-0.89-3.29
			c-0.59-0.81-1.4-1.21-2.42-1.21c-1,0-1.8,0.4-2.39,1.2C47.08,238.56,46.78,239.75,46.78,241.33z"/>
		<path class="st2" d="M67.33,246.7c-0.9,1.06-2.18,1.59-3.85,1.59c-1.48,0-2.61-0.43-3.37-1.3c-0.76-0.87-1.15-2.13-1.15-3.77
			v-8.87h3.07v8.83c0,1.74,0.72,2.61,2.16,2.61c1.49,0,2.5-0.54,3.02-1.61v-9.83h3.07v13.69h-2.9L67.33,246.7z"/>
		<path class="st2" d="M91.9,243.8l2.18-9.45h3l-3.73,13.69h-2.53l-2.93-9.4l-2.88,9.4h-2.53l-3.74-13.69h3l2.21,9.35l2.81-9.35
			h2.31L91.9,243.8z"/>
		<path class="st2" d="M99.14,230.8c0-0.47,0.15-0.86,0.45-1.18c0.3-0.31,0.73-0.47,1.28-0.47s0.99,0.16,1.29,0.47
			c0.3,0.31,0.46,0.7,0.46,1.18c0,0.46-0.15,0.85-0.46,1.16c-0.3,0.31-0.73,0.46-1.29,0.46s-0.98-0.15-1.28-0.46
			C99.29,231.64,99.14,231.26,99.14,230.8z M102.4,248.04h-3.07v-13.69h3.07V248.04z"/>
		<path class="st2" d="M109.02,248.04h-3.07v-19.43h3.07V248.04z"/>
		<path class="st2" d="M115.64,248.04h-3.07v-19.43h3.07V248.04z"/>
		<path class="st2" d="M128.7,248.04h-3.07v-19.43h3.07V248.04z"/>
		<path class="st2" d="M138.08,248.29c-1.95,0-3.53-0.61-4.74-1.84c-1.21-1.23-1.82-2.86-1.82-4.9v-0.38c0-1.37,0.26-2.59,0.79-3.66
			c0.53-1.08,1.27-1.91,2.22-2.51s2.02-0.9,3.19-0.9c1.86,0,3.3,0.59,4.32,1.78c1.02,1.19,1.52,2.87,1.52,5.05v1.24h-8.94
			c0.09,1.13,0.47,2.02,1.13,2.68c0.66,0.66,1.49,0.99,2.5,0.99c1.41,0,2.56-0.57,3.44-1.71l1.66,1.58
			c-0.55,0.82-1.28,1.45-2.19,1.9S139.21,248.29,138.08,248.29z M137.71,236.56c-0.84,0-1.52,0.3-2.04,0.89s-0.85,1.41-0.99,2.47
			h5.86v-0.23c-0.07-1.03-0.34-1.81-0.82-2.33C139.23,236.83,138.56,236.56,137.71,236.56z"/>
		<path class="st2" d="M154.13,248.04c-0.13-0.26-0.25-0.69-0.35-1.28c-0.98,1.02-2.18,1.53-3.59,1.53c-1.37,0-2.5-0.39-3.36-1.18
			s-1.3-1.75-1.3-2.91c0-1.46,0.54-2.58,1.63-3.36c1.08-0.78,2.63-1.17,4.65-1.17h1.89v-0.9c0-0.71-0.2-1.28-0.59-1.7
			s-1-0.64-1.81-0.64c-0.7,0-1.27,0.18-1.72,0.52c-0.45,0.35-0.67,0.8-0.67,1.33h-3.07c0-0.75,0.25-1.45,0.75-2.11
			c0.5-0.65,1.17-1.17,2.03-1.54c0.86-0.37,1.81-0.56,2.87-0.56c1.6,0,2.88,0.4,3.83,1.21c0.95,0.81,1.44,1.94,1.47,3.4v6.17
			c0,1.23,0.17,2.21,0.52,2.95v0.21H154.13z M150.75,245.82c0.61,0,1.18-0.15,1.71-0.44c0.54-0.3,0.94-0.69,1.21-1.19v-2.58h-1.66
			c-1.14,0-1.99,0.2-2.57,0.59c-0.57,0.4-0.86,0.96-0.86,1.68c0,0.59,0.2,1.06,0.59,1.41C149.57,245.65,150.09,245.82,150.75,245.82
			z"/>
		<path class="st2" d="M167.13,237.16c-0.4-0.07-0.82-0.1-1.25-0.1c-1.41,0-2.36,0.54-2.85,1.62v9.36h-3.07v-13.69h2.94l0.08,1.53
			c0.74-1.19,1.77-1.78,3.09-1.78c0.44,0,0.8,0.06,1.09,0.18L167.13,237.16z"/>
		<path class="st2" d="M171.93,234.35l0.09,1.58c1.01-1.22,2.34-1.83,3.98-1.83c2.85,0,4.3,1.63,4.35,4.9v9.04h-3.07v-8.87
			c0-0.87-0.19-1.51-0.56-1.93c-0.38-0.42-0.99-0.63-1.84-0.63c-1.24,0-2.16,0.56-2.77,1.68v9.74h-3.07v-13.69H171.93z"/>
		<path class="st2" d="M193.79,231.02v3.33h2.42v2.28h-2.42v7.64c0,0.52,0.1,0.9,0.31,1.13c0.21,0.23,0.58,0.35,1.11,0.35
			c0.35,0,0.71-0.04,1.08-0.13V248c-0.7,0.19-1.38,0.29-2.02,0.29c-2.36,0-3.54-1.3-3.54-3.91v-7.75h-2.25v-2.28h2.25v-3.33H193.79z
			"/>
		<path class="st2" d="M201.58,235.84c1-1.16,2.27-1.75,3.81-1.75c2.92,0,4.4,1.67,4.44,5v8.94h-3.07v-8.83c0-0.94-0.2-1.61-0.61-2
			s-1.01-0.59-1.8-0.59c-1.23,0-2.15,0.55-2.76,1.64v9.78h-3.07v-19.43h3.07V235.84z"/>
		<path class="st2" d="M218.96,248.29c-1.95,0-3.53-0.61-4.74-1.84s-1.82-2.86-1.82-4.9v-0.38c0-1.37,0.26-2.59,0.79-3.66
			c0.53-1.08,1.27-1.91,2.22-2.51s2.02-0.9,3.19-0.9c1.86,0,3.3,0.59,4.32,1.78c1.02,1.19,1.52,2.87,1.52,5.05v1.24h-8.94
			c0.09,1.13,0.47,2.02,1.13,2.68c0.66,0.66,1.5,0.99,2.5,0.99c1.41,0,2.56-0.57,3.44-1.71l1.66,1.58c-0.55,0.82-1.28,1.45-2.2,1.9
			S220.1,248.29,218.96,248.29z M218.59,236.56c-0.84,0-1.52,0.3-2.04,0.89s-0.85,1.41-0.99,2.47h5.86v-0.23
			c-0.07-1.03-0.34-1.81-0.82-2.33C220.11,236.83,219.44,236.56,218.59,236.56z"/>
		<path class="st2" d="M233.58,248.04v-18.42h5.44c1.63,0,3.07,0.36,4.33,1.09c1.26,0.73,2.24,1.75,2.93,3.09s1.04,2.86,1.04,4.58
			v0.92c0,1.75-0.35,3.28-1.04,4.6c-0.7,1.32-1.69,2.34-2.97,3.06s-2.76,1.08-4.42,1.08H233.58z M236.78,232.2v13.28h2.09
			c1.68,0,2.97-0.52,3.86-1.58c0.9-1.05,1.36-2.56,1.37-4.52v-1.02c0-2-0.43-3.52-1.3-4.58c-0.87-1.05-2.13-1.58-3.78-1.58H236.78z"
			/>
		<path class="st2" d="M249.63,241.07c0-1.34,0.27-2.55,0.8-3.62s1.28-1.9,2.24-2.48c0.96-0.58,2.07-0.87,3.31-0.87
			c1.85,0,3.35,0.59,4.5,1.78c1.15,1.19,1.77,2.77,1.87,4.73l0.01,0.72c0,1.35-0.26,2.56-0.78,3.62s-1.26,1.88-2.23,2.47
			c-0.97,0.58-2.08,0.87-3.35,0.87c-1.93,0-3.48-0.64-4.64-1.93c-1.16-1.29-1.74-3-1.74-5.14V241.07z M252.71,241.33
			c0,1.41,0.29,2.51,0.87,3.31s1.39,1.2,2.43,1.2s1.84-0.4,2.42-1.21c0.58-0.81,0.87-1.99,0.87-3.55c0-1.38-0.3-2.48-0.89-3.29
			c-0.59-0.81-1.4-1.21-2.42-1.21c-1,0-1.8,0.4-2.39,1.2C253,238.56,252.71,239.75,252.71,241.33z"/>
		<path class="st2" d="M272.63,244.32c0-0.55-0.23-0.97-0.68-1.25s-1.2-0.54-2.25-0.76c-1.05-0.22-1.92-0.5-2.62-0.83
			c-1.53-0.74-2.3-1.82-2.3-3.23c0-1.18,0.5-2.17,1.49-2.96s2.26-1.19,3.79-1.19c1.64,0,2.96,0.4,3.97,1.21s1.51,1.86,1.51,3.15
			h-3.07c0-0.59-0.22-1.08-0.66-1.47s-1.02-0.59-1.75-0.59c-0.67,0-1.22,0.16-1.65,0.47s-0.64,0.73-0.64,1.25
			c0,0.47,0.2,0.84,0.59,1.1c0.4,0.26,1.2,0.52,2.4,0.79s2.15,0.58,2.84,0.95s1.2,0.81,1.53,1.32c0.33,0.51,0.5,1.14,0.5,1.87
			c0,1.23-0.51,2.23-1.53,2.99c-1.02,0.76-2.36,1.14-4.01,1.14c-1.12,0-2.12-0.2-3-0.61s-1.56-0.96-2.05-1.67s-0.73-1.47-0.73-2.29
			h2.99c0.04,0.73,0.32,1.28,0.82,1.68c0.51,0.39,1.18,0.59,2.01,0.59c0.81,0,1.42-0.15,1.85-0.46
			C272.42,245.22,272.63,244.82,272.63,244.32z"/>
		<path class="st2" d="M292.96,248.04c-0.13-0.26-0.25-0.69-0.35-1.28c-0.98,1.02-2.18,1.53-3.59,1.53c-1.38,0-2.5-0.39-3.37-1.18
			c-0.87-0.78-1.3-1.75-1.3-2.91c0-1.46,0.54-2.58,1.62-3.36c1.08-0.78,2.63-1.17,4.65-1.17h1.88v-0.9c0-0.71-0.2-1.28-0.59-1.7
			s-1-0.64-1.81-0.64c-0.7,0-1.27,0.18-1.72,0.52c-0.45,0.35-0.67,0.8-0.67,1.33h-3.07c0-0.75,0.25-1.45,0.75-2.11
			c0.5-0.65,1.17-1.17,2.03-1.54c0.86-0.37,1.81-0.56,2.87-0.56c1.6,0,2.88,0.4,3.83,1.21s1.44,1.94,1.47,3.4v6.17
			c0,1.23,0.17,2.21,0.52,2.95v0.21H292.96z M289.58,245.82c0.61,0,1.18-0.15,1.71-0.44c0.54-0.3,0.94-0.69,1.21-1.19v-2.58h-1.66
			c-1.14,0-2,0.2-2.57,0.59s-0.86,0.96-0.86,1.68c0,0.59,0.2,1.06,0.59,1.41C288.4,245.65,288.93,245.82,289.58,245.82z"/>
		<path class="st2" d="M301.65,234.35l0.09,1.58c1.01-1.22,2.34-1.83,3.99-1.83c2.85,0,4.3,1.63,4.35,4.9v9.04H307v-8.87
			c0-0.87-0.19-1.51-0.56-1.93c-0.38-0.42-0.99-0.63-1.84-0.63c-1.24,0-2.16,0.56-2.77,1.68v9.74h-3.07v-13.69H301.65z"/>
		<path class="st2" d="M312.63,241.09c0-2.11,0.49-3.8,1.47-5.08c0.98-1.28,2.29-1.92,3.93-1.92c1.45,0,2.62,0.51,3.52,1.52v-7.01
			h3.07v19.43h-2.78l-0.15-1.42c-0.92,1.11-2.15,1.67-3.68,1.67c-1.6,0-2.9-0.65-3.89-1.94
			C313.13,245.06,312.63,243.31,312.63,241.09z M315.71,241.36c0,1.39,0.27,2.48,0.8,3.26c0.54,0.78,1.3,1.17,2.28,1.17
			c1.26,0,2.18-0.56,2.76-1.68v-5.84c-0.57-1.1-1.48-1.64-2.73-1.64c-1,0-1.76,0.39-2.3,1.18
			C315.97,238.59,315.71,239.77,315.71,241.36z"/>
		<path class="st2" d="M34.3,279.13v-18.42h5.44c1.63,0,3.07,0.36,4.33,1.09s2.24,1.75,2.93,3.09c0.69,1.33,1.04,2.86,1.04,4.58
			v0.92c0,1.75-0.35,3.28-1.04,4.6c-0.7,1.32-1.69,2.34-2.97,3.06c-1.29,0.72-2.76,1.08-4.42,1.08H34.3z M37.5,263.29v13.28h2.09
			c1.68,0,2.97-0.52,3.86-1.57s1.36-2.56,1.37-4.52v-1.02c0-2-0.43-3.53-1.3-4.58c-0.87-1.05-2.13-1.58-3.78-1.58H37.5z"/>
		<path class="st2" d="M50.35,272.16c0-1.34,0.27-2.55,0.8-3.62c0.53-1.08,1.28-1.9,2.24-2.48c0.96-0.58,2.07-0.87,3.31-0.87
			c1.85,0,3.35,0.59,4.5,1.78c1.15,1.19,1.77,2.77,1.87,4.73l0.01,0.72c0,1.35-0.26,2.55-0.78,3.62s-1.26,1.88-2.23,2.47
			s-2.08,0.87-3.35,0.87c-1.93,0-3.48-0.64-4.64-1.93c-1.16-1.29-1.74-3-1.74-5.14V272.16z M53.42,272.42
			c0,1.41,0.29,2.51,0.87,3.31c0.58,0.8,1.39,1.2,2.43,1.2c1.04,0,1.84-0.4,2.42-1.21s0.87-2,0.87-3.55c0-1.38-0.3-2.48-0.89-3.29
			s-1.4-1.21-2.42-1.21c-1,0-1.8,0.4-2.39,1.2C53.72,269.64,53.42,270.84,53.42,272.42z"/>
		<path class="st2" d="M68.53,265.44l0.09,1.58c1.01-1.22,2.34-1.83,3.98-1.83c2.85,0,4.3,1.63,4.35,4.9v9.04h-3.07v-8.87
			c0-0.87-0.19-1.51-0.56-1.93c-0.38-0.42-0.99-0.63-1.84-0.63c-1.24,0-2.16,0.56-2.77,1.68v9.74h-3.07v-13.69H68.53z"/>
		<path class="st2" d="M79.2,266.17l-1.57-0.97c0.76-1.1,1.15-2.27,1.18-3.5v-2h2.69v1.75c0,0.87-0.22,1.74-0.66,2.62
			C80.4,264.95,79.85,265.65,79.2,266.17z"/>
		<path class="st2" d="M88.03,262.11v3.33h2.42v2.28h-2.42v7.64c0,0.52,0.1,0.9,0.31,1.13c0.21,0.23,0.58,0.35,1.11,0.35
			c0.35,0,0.71-0.04,1.08-0.13v2.38c-0.7,0.19-1.38,0.29-2.02,0.29c-2.36,0-3.54-1.3-3.54-3.91v-7.75h-2.25v-2.28h2.25v-3.33H88.03z
			"/>
		<path class="st2" d="M100.47,275.41c0-0.55-0.23-0.97-0.68-1.25c-0.45-0.29-1.2-0.54-2.25-0.76c-1.05-0.22-1.92-0.5-2.62-0.83
			c-1.54-0.74-2.3-1.82-2.3-3.23c0-1.18,0.5-2.17,1.49-2.96c0.99-0.79,2.26-1.19,3.79-1.19c1.64,0,2.96,0.41,3.97,1.21
			c1.01,0.81,1.51,1.86,1.51,3.15h-3.07c0-0.59-0.22-1.08-0.66-1.47c-0.44-0.39-1.02-0.59-1.75-0.59c-0.67,0-1.23,0.16-1.65,0.47
			c-0.43,0.31-0.64,0.73-0.64,1.25c0,0.47,0.2,0.84,0.59,1.1c0.4,0.26,1.2,0.53,2.4,0.79c1.21,0.27,2.15,0.58,2.84,0.95
			c0.69,0.37,1.2,0.81,1.53,1.32c0.33,0.51,0.5,1.14,0.5,1.87c0,1.23-0.51,2.23-1.53,2.99c-1.02,0.76-2.36,1.14-4.01,1.14
			c-1.12,0-2.12-0.2-3-0.61c-0.88-0.4-1.56-0.96-2.05-1.67c-0.49-0.71-0.73-1.47-0.73-2.29h2.99c0.04,0.73,0.32,1.28,0.82,1.68
			c0.51,0.39,1.18,0.59,2.01,0.59c0.81,0,1.43-0.15,1.85-0.46C100.26,276.31,100.47,275.9,100.47,275.41z"/>
		<path class="st2" d="M112.04,272.16c0-1.34,0.27-2.55,0.8-3.62c0.53-1.08,1.28-1.9,2.24-2.48c0.96-0.58,2.07-0.87,3.31-0.87
			c1.85,0,3.35,0.59,4.5,1.78c1.15,1.19,1.77,2.77,1.87,4.73l0.01,0.72c0,1.35-0.26,2.55-0.78,3.62s-1.26,1.88-2.23,2.47
			s-2.08,0.87-3.35,0.87c-1.93,0-3.48-0.64-4.64-1.93c-1.16-1.29-1.74-3-1.74-5.14V272.16z M115.12,272.42
			c0,1.41,0.29,2.51,0.87,3.31c0.58,0.8,1.39,1.2,2.43,1.2c1.04,0,1.84-0.4,2.42-1.21s0.87-2,0.87-3.55c0-1.38-0.3-2.48-0.89-3.29
			s-1.4-1.21-2.42-1.21c-1,0-1.8,0.4-2.39,1.2C115.41,269.64,115.12,270.84,115.12,272.42z"/>
		<path class="st2" d="M128.45,279.13v-11.41h-2.09v-2.28h2.09v-1.25c0-1.52,0.42-2.69,1.27-3.52s2.02-1.24,3.54-1.24
			c0.54,0,1.11,0.08,1.72,0.23l-0.08,2.4c-0.34-0.07-0.73-0.1-1.18-0.1c-1.47,0-2.2,0.75-2.2,2.26v1.21h2.78v2.28h-2.78v11.41
			H128.45z"/>
		<path class="st2" d="M146.03,266.93c1-1.16,2.27-1.75,3.81-1.75c2.92,0,4.4,1.67,4.44,5v8.94h-3.07v-8.83c0-0.94-0.2-1.61-0.61-2
			c-0.41-0.39-1.01-0.59-1.8-0.59c-1.23,0-2.15,0.55-2.76,1.64v9.78h-3.07v-19.43h3.07V266.93z"/>
		<path class="st2" d="M156.81,272.16c0-1.34,0.27-2.55,0.8-3.62c0.53-1.08,1.28-1.9,2.24-2.48c0.96-0.58,2.07-0.87,3.31-0.87
			c1.85,0,3.35,0.59,4.5,1.78c1.15,1.19,1.77,2.77,1.87,4.73l0.01,0.72c0,1.35-0.26,2.55-0.78,3.62s-1.26,1.88-2.23,2.47
			s-2.08,0.87-3.35,0.87c-1.93,0-3.48-0.64-4.64-1.93c-1.16-1.29-1.74-3-1.74-5.14V272.16z M159.89,272.42
			c0,1.41,0.29,2.51,0.87,3.31c0.58,0.8,1.39,1.2,2.43,1.2c1.04,0,1.84-0.4,2.42-1.21s0.87-2,0.87-3.55c0-1.38-0.3-2.48-0.89-3.29
			s-1.4-1.21-2.42-1.21c-1,0-1.8,0.4-2.39,1.2C160.18,269.64,159.89,270.84,159.89,272.42z"/>
		<path class="st2" d="M180.43,277.78c-0.9,1.06-2.19,1.59-3.85,1.59c-1.48,0-2.61-0.43-3.37-1.3c-0.76-0.87-1.15-2.12-1.15-3.77
			v-8.87h3.07v8.83c0,1.74,0.72,2.61,2.16,2.61c1.49,0,2.5-0.54,3.02-1.61v-9.83h3.07v13.69h-2.9L180.43,277.78z"/>
		<path class="st2" d="M194.21,275.41c0-0.55-0.23-0.97-0.68-1.25c-0.45-0.29-1.2-0.54-2.25-0.76c-1.05-0.22-1.92-0.5-2.62-0.83
			c-1.53-0.74-2.3-1.82-2.3-3.23c0-1.18,0.5-2.17,1.49-2.96s2.26-1.19,3.79-1.19c1.64,0,2.96,0.41,3.97,1.21s1.51,1.86,1.51,3.15
			h-3.07c0-0.59-0.22-1.08-0.66-1.47c-0.44-0.39-1.02-0.59-1.75-0.59c-0.67,0-1.22,0.16-1.65,0.47c-0.43,0.31-0.64,0.73-0.64,1.25
			c0,0.47,0.2,0.84,0.59,1.1c0.4,0.26,1.2,0.53,2.4,0.79s2.15,0.58,2.84,0.95c0.69,0.37,1.2,0.81,1.53,1.32
			c0.33,0.51,0.5,1.14,0.5,1.87c0,1.23-0.51,2.23-1.53,2.99c-1.02,0.76-2.36,1.14-4.01,1.14c-1.12,0-2.12-0.2-3-0.61
			c-0.88-0.4-1.56-0.96-2.05-1.67c-0.49-0.71-0.73-1.47-0.73-2.29h2.99c0.04,0.73,0.32,1.28,0.82,1.68
			c0.51,0.39,1.18,0.59,2.01,0.59c0.81,0,1.42-0.15,1.85-0.46S194.21,275.9,194.21,275.41z"/>
		<path class="st2" d="M205.93,279.38c-1.95,0-3.53-0.61-4.74-1.84c-1.21-1.23-1.82-2.86-1.82-4.9v-0.38c0-1.37,0.26-2.59,0.79-3.66
			c0.53-1.08,1.27-1.91,2.22-2.51s2.02-0.9,3.19-0.9c1.86,0,3.3,0.59,4.32,1.78c1.02,1.19,1.52,2.87,1.52,5.05v1.24h-8.94
			c0.09,1.13,0.47,2.02,1.13,2.68c0.66,0.66,1.5,0.99,2.5,0.99c1.41,0,2.56-0.57,3.44-1.71l1.66,1.58c-0.55,0.82-1.28,1.45-2.2,1.9
			S207.07,279.38,205.93,279.38z M205.56,267.65c-0.84,0-1.52,0.3-2.04,0.89c-0.52,0.59-0.85,1.41-0.99,2.47h5.86v-0.23
			c-0.07-1.03-0.34-1.81-0.82-2.33S206.42,267.65,205.56,267.65z"/>
		<path class="st2" d="M219.77,272.53h-6.64v-2.48h6.64V272.53z"/>
		<path class="st2" d="M234.32,272.42c0,2.12-0.47,3.82-1.42,5.07c-0.95,1.26-2.25,1.88-3.92,1.88c-1.6,0-2.85-0.58-3.75-1.73
			l-0.15,1.48h-2.78v-19.43h3.07v7.06c0.89-1.05,2.08-1.57,3.58-1.57c1.67,0,2.98,0.62,3.93,1.86c0.95,1.24,1.43,2.97,1.43,5.2
			V272.42z M231.24,272.16c0-1.48-0.26-2.6-0.78-3.34c-0.52-0.74-1.28-1.11-2.28-1.11c-1.33,0-2.27,0.58-2.81,1.75v5.64
			c0.55,1.19,1.49,1.78,2.83,1.78c0.96,0,1.7-0.36,2.23-1.08c0.52-0.72,0.79-1.8,0.81-3.25V272.16z"/>
		<path class="st2" d="M244.06,268.25c-0.41-0.07-0.82-0.1-1.25-0.1c-1.41,0-2.36,0.54-2.85,1.62v9.36h-3.07v-13.69h2.93l0.08,1.53
			c0.74-1.19,1.77-1.78,3.09-1.78c0.44,0,0.8,0.06,1.09,0.18L244.06,268.25z"/>
		<path class="st2" d="M252.03,279.38c-1.95,0-3.53-0.61-4.74-1.84c-1.21-1.23-1.82-2.86-1.82-4.9v-0.38c0-1.37,0.26-2.59,0.79-3.66
			c0.53-1.08,1.27-1.91,2.22-2.51s2.02-0.9,3.19-0.9c1.86,0,3.3,0.59,4.32,1.78c1.02,1.19,1.52,2.87,1.52,5.05v1.24h-8.94
			c0.09,1.13,0.47,2.02,1.13,2.68c0.66,0.66,1.5,0.99,2.5,0.99c1.41,0,2.56-0.57,3.44-1.71l1.66,1.58c-0.55,0.82-1.28,1.45-2.2,1.9
			S253.17,279.38,252.03,279.38z M251.66,267.65c-0.84,0-1.52,0.3-2.04,0.89c-0.52,0.59-0.85,1.41-0.99,2.47h5.86v-0.23
			c-0.07-1.03-0.34-1.81-0.82-2.33S252.51,267.65,251.66,267.65z"/>
		<path class="st2" d="M268.08,279.13c-0.13-0.26-0.25-0.69-0.35-1.28c-0.98,1.02-2.18,1.53-3.59,1.53c-1.38,0-2.5-0.39-3.37-1.18
			c-0.87-0.78-1.3-1.75-1.3-2.91c0-1.46,0.54-2.58,1.62-3.36c1.08-0.78,2.63-1.17,4.65-1.17h1.88v-0.9c0-0.71-0.2-1.28-0.59-1.7
			s-1-0.64-1.81-0.64c-0.7,0-1.27,0.17-1.72,0.52c-0.45,0.35-0.67,0.79-0.67,1.33h-3.07c0-0.75,0.25-1.45,0.75-2.11
			c0.5-0.65,1.17-1.17,2.03-1.54c0.86-0.37,1.81-0.56,2.87-0.56c1.6,0,2.88,0.4,3.83,1.21c0.95,0.81,1.44,1.94,1.47,3.4v6.17
			c0,1.23,0.17,2.21,0.52,2.95v0.21H268.08z M264.7,276.91c0.61,0,1.18-0.15,1.71-0.44c0.54-0.29,0.94-0.69,1.21-1.19v-2.58h-1.66
			c-1.14,0-2,0.2-2.57,0.59c-0.57,0.4-0.86,0.96-0.86,1.68c0,0.59,0.2,1.06,0.59,1.41C263.52,276.74,264.05,276.91,264.7,276.91z"/>
		<path class="st2" d="M278.37,273.26l-1.37,1.4v4.47h-3.07v-19.43H277v11.21l0.96-1.2l3.78-4.26h3.69l-5.08,5.71l5.63,7.98h-3.55
			L278.37,273.26z"/>
		<path class="st2" d="M287.45,261.88c0-0.47,0.15-0.86,0.45-1.18c0.3-0.31,0.73-0.47,1.28-0.47s0.99,0.16,1.29,0.47
			c0.3,0.31,0.46,0.7,0.46,1.18c0,0.46-0.15,0.85-0.46,1.16s-0.73,0.46-1.29,0.46s-0.99-0.15-1.28-0.46
			C287.6,262.73,287.45,262.35,287.45,261.88z M290.71,279.13h-3.07v-13.69h3.07V279.13z"/>
		<path class="st2" d="M296.91,265.44l0.09,1.58c1.01-1.22,2.34-1.83,3.99-1.83c2.85,0,4.3,1.63,4.35,4.9v9.04h-3.07v-8.87
			c0-0.87-0.19-1.51-0.56-1.93c-0.38-0.42-0.99-0.63-1.84-0.63c-1.24,0-2.16,0.56-2.77,1.68v9.74h-3.07v-13.69H296.91z"/>
		<path class="st2" d="M307.93,272.18c0-2.13,0.5-3.82,1.5-5.09s2.33-1.9,3.98-1.9c1.56,0,2.79,0.54,3.68,1.63l0.14-1.38H320v13.27
			c0,1.8-0.56,3.21-1.68,4.25c-1.12,1.04-2.62,1.56-4.52,1.56c-1,0-1.98-0.21-2.94-0.63s-1.68-0.96-2.18-1.64l1.46-1.85
			c0.94,1.12,2.11,1.68,3.49,1.68c1.02,0,1.83-0.28,2.42-0.83c0.59-0.55,0.89-1.36,0.89-2.44v-0.92c-0.89,0.99-2.07,1.48-3.54,1.48
			c-1.6,0-2.91-0.64-3.93-1.91S307.93,274.43,307.93,272.18z M310.99,272.45c0,1.37,0.28,2.46,0.84,3.24
			c0.56,0.79,1.34,1.18,2.33,1.18c1.24,0,2.16-0.53,2.76-1.59v-6.02c-0.58-1.04-1.49-1.56-2.73-1.56c-1.01,0-1.8,0.4-2.36,1.2
			C311.27,269.71,310.99,270.89,310.99,272.45z"/>
		<path class="st2" d="M39.85,305.81l2.78-9.29h3.28l-5.44,15.76c-0.83,2.3-2.25,3.45-4.25,3.45c-0.45,0-0.94-0.08-1.48-0.23v-2.39
			l0.58,0.04c0.78,0,1.36-0.14,1.75-0.42c0.39-0.28,0.7-0.76,0.93-1.42l0.44-1.17l-4.81-13.61h3.31L39.85,305.81z"/>
		<path class="st2" d="M47.1,303.24c0-1.34,0.27-2.55,0.8-3.62c0.53-1.08,1.28-1.9,2.24-2.48c0.96-0.58,2.07-0.87,3.31-0.87
			c1.85,0,3.35,0.59,4.5,1.78c1.15,1.19,1.77,2.77,1.87,4.73l0.01,0.72c0,1.35-0.26,2.55-0.78,3.62s-1.26,1.88-2.23,2.47
			s-2.08,0.87-3.35,0.87c-1.93,0-3.48-0.64-4.64-1.93c-1.16-1.29-1.74-3-1.74-5.14V303.24z M50.17,303.51
			c0,1.41,0.29,2.51,0.87,3.31c0.58,0.8,1.39,1.2,2.43,1.2c1.04,0,1.84-0.4,2.42-1.21s0.87-2,0.87-3.55c0-1.38-0.3-2.48-0.89-3.29
			s-1.4-1.21-2.42-1.21c-1,0-1.8,0.4-2.39,1.2C50.47,300.73,50.17,301.92,50.17,303.51z"/>
		<path class="st2" d="M70.72,308.87c-0.9,1.06-2.18,1.59-3.85,1.59c-1.48,0-2.61-0.43-3.37-1.3c-0.76-0.87-1.15-2.12-1.15-3.77
			v-8.87h3.07v8.83c0,1.74,0.72,2.61,2.16,2.61c1.49,0,2.5-0.54,3.02-1.61v-9.83h3.07v13.69h-2.9L70.72,308.87z"/>
		<path class="st2" d="M83.99,299.34c-0.4-0.07-0.82-0.1-1.25-0.1c-1.41,0-2.36,0.54-2.85,1.62v9.36h-3.07v-13.69h2.94l0.08,1.53
			c0.74-1.19,1.77-1.78,3.09-1.78c0.44,0,0.8,0.06,1.09,0.18L83.99,299.34z"/>
		<path class="st2" d="M104.37,303.51c0,2.12-0.48,3.81-1.44,5.07s-2.25,1.89-3.87,1.89c-1.5,0-2.7-0.49-3.6-1.48v6.49h-3.07v-18.95
			h2.83l0.13,1.39c0.9-1.1,2.13-1.64,3.68-1.64c1.67,0,2.98,0.62,3.93,1.87s1.42,2.97,1.42,5.18V303.51z M101.3,303.24
			c0-1.37-0.27-2.45-0.82-3.25c-0.54-0.8-1.32-1.2-2.33-1.2c-1.26,0-2.16,0.52-2.71,1.56v6.07c0.56,1.06,1.47,1.59,2.73,1.59
			c0.98,0,1.74-0.39,2.3-1.18C101.03,306.04,101.3,304.85,101.3,303.24z"/>
		<path class="st2" d="M115.26,308.87c-0.9,1.06-2.18,1.59-3.85,1.59c-1.48,0-2.61-0.43-3.37-1.3c-0.76-0.87-1.15-2.12-1.15-3.77
			v-8.87h3.07v8.83c0,1.74,0.72,2.61,2.16,2.61c1.49,0,2.5-0.54,3.02-1.61v-9.83h3.07v13.69h-2.9L115.26,308.87z"/>
		<path class="st2" d="M133.35,303.51c0,2.12-0.48,3.81-1.44,5.07s-2.25,1.89-3.87,1.89c-1.5,0-2.7-0.49-3.6-1.48v6.49h-3.07v-18.95
			h2.83l0.13,1.39c0.9-1.1,2.13-1.64,3.68-1.64c1.67,0,2.98,0.62,3.93,1.87s1.42,2.97,1.42,5.18V303.51z M130.29,303.24
			c0-1.37-0.27-2.45-0.82-3.25c-0.54-0.8-1.32-1.2-2.33-1.2c-1.26,0-2.16,0.52-2.71,1.56v6.07c0.56,1.06,1.47,1.59,2.73,1.59
			c0.98,0,1.74-0.39,2.3-1.18C130.01,306.04,130.29,304.85,130.29,303.24z"/>
		<path class="st2" d="M150.58,310.21c-0.13-0.26-0.25-0.69-0.35-1.28c-0.98,1.02-2.18,1.53-3.59,1.53c-1.37,0-2.5-0.39-3.36-1.18
			c-0.87-0.78-1.3-1.75-1.3-2.91c0-1.46,0.54-2.58,1.63-3.36c1.08-0.78,2.63-1.17,4.65-1.17h1.89v-0.9c0-0.71-0.2-1.28-0.59-1.7
			s-1-0.64-1.81-0.64c-0.7,0-1.27,0.17-1.72,0.52c-0.45,0.35-0.67,0.79-0.67,1.33h-3.07c0-0.75,0.25-1.45,0.75-2.11
			s1.17-1.17,2.03-1.54s1.81-0.56,2.87-0.56c1.6,0,2.88,0.4,3.83,1.21c0.95,0.81,1.44,1.94,1.47,3.4v6.17
			c0,1.23,0.17,2.21,0.52,2.95v0.21H150.58z M147.2,308c0.61,0,1.18-0.15,1.71-0.44s0.94-0.69,1.21-1.19v-2.58h-1.66
			c-1.14,0-1.99,0.2-2.57,0.59c-0.57,0.4-0.86,0.96-0.86,1.68c0,0.59,0.2,1.06,0.59,1.41C146.02,307.83,146.54,308,147.2,308z"/>
		<path class="st2" d="M159.27,296.53l0.09,1.58c1.01-1.22,2.34-1.83,3.98-1.83c2.85,0,4.3,1.63,4.35,4.9v9.04h-3.07v-8.87
			c0-0.87-0.19-1.51-0.56-1.93c-0.38-0.42-0.99-0.63-1.84-0.63c-1.24,0-2.16,0.56-2.77,1.68v9.74h-3.07v-13.69H159.27z"/>
		<path class="st2" d="M170.25,303.27c0-2.11,0.49-3.8,1.47-5.08c0.98-1.28,2.29-1.92,3.93-1.92c1.45,0,2.62,0.51,3.52,1.52v-7.01
			h3.07v19.43h-2.78l-0.15-1.42c-0.92,1.11-2.15,1.67-3.68,1.67c-1.6,0-2.9-0.65-3.89-1.94
			C170.74,307.24,170.25,305.49,170.25,303.27z M173.32,303.54c0,1.39,0.27,2.48,0.8,3.26s1.3,1.17,2.28,1.17
			c1.26,0,2.18-0.56,2.76-1.68v-5.84c-0.57-1.1-1.48-1.64-2.73-1.64c-1,0-1.76,0.39-2.3,1.18
			C173.59,300.76,173.32,301.95,173.32,303.54z"/>
		<path class="st2" d="M194.93,298.02c1-1.16,2.27-1.75,3.81-1.75c2.92,0,4.4,1.67,4.44,5v8.94h-3.07v-8.83c0-0.94-0.2-1.61-0.61-2
			c-0.41-0.39-1.01-0.59-1.8-0.59c-1.23,0-2.15,0.55-2.76,1.64v9.78h-3.07v-19.43h3.07V298.02z"/>
		<path class="st2" d="M205.7,303.24c0-1.34,0.27-2.55,0.8-3.62c0.53-1.08,1.28-1.9,2.24-2.48c0.96-0.58,2.07-0.87,3.31-0.87
			c1.85,0,3.35,0.59,4.5,1.78c1.15,1.19,1.77,2.77,1.87,4.73l0.01,0.72c0,1.35-0.26,2.55-0.78,3.62s-1.26,1.88-2.23,2.47
			s-2.08,0.87-3.35,0.87c-1.93,0-3.48-0.64-4.64-1.93c-1.16-1.29-1.74-3-1.74-5.14V303.24z M208.78,303.51
			c0,1.41,0.29,2.51,0.87,3.31s1.39,1.2,2.43,1.2s1.84-0.4,2.42-1.21c0.58-0.81,0.87-2,0.87-3.55c0-1.38-0.3-2.48-0.89-3.29
			c-0.59-0.81-1.4-1.21-2.42-1.21c-1,0-1.8,0.4-2.39,1.2C209.07,300.73,208.78,301.92,208.78,303.51z"/>
		<path class="st2" d="M233.05,305.98l2.18-9.45h3l-3.73,13.69h-2.53l-2.93-9.4l-2.88,9.4h-2.53l-3.75-13.69h3l2.21,9.35l2.81-9.35
			h2.31L233.05,305.98z"/>
		<path class="st2" d="M250.58,293.2v3.33H253v2.28h-2.42v7.64c0,0.52,0.1,0.9,0.31,1.13c0.21,0.23,0.58,0.35,1.11,0.35
			c0.35,0,0.71-0.04,1.08-0.13v2.38c-0.7,0.19-1.38,0.29-2.02,0.29c-2.36,0-3.54-1.3-3.54-3.91v-7.75h-2.25v-2.28h2.25v-3.33H250.58
			z"/>
		<path class="st2" d="M254.39,303.24c0-1.34,0.27-2.55,0.8-3.62c0.53-1.08,1.28-1.9,2.24-2.48c0.96-0.58,2.07-0.87,3.31-0.87
			c1.85,0,3.35,0.59,4.5,1.78c1.15,1.19,1.77,2.77,1.87,4.73l0.01,0.72c0,1.35-0.26,2.55-0.78,3.62s-1.26,1.88-2.23,2.47
			s-2.08,0.87-3.35,0.87c-1.93,0-3.48-0.64-4.64-1.93c-1.16-1.29-1.74-3-1.74-5.14V303.24z M257.47,303.51
			c0,1.41,0.29,2.51,0.87,3.31s1.39,1.2,2.43,1.2s1.84-0.4,2.42-1.21c0.58-0.81,0.87-2,0.87-3.55c0-1.38-0.3-2.48-0.89-3.29
			c-0.59-0.81-1.4-1.21-2.42-1.21c-1,0-1.8,0.4-2.39,1.2C257.76,300.73,257.47,301.92,257.47,303.51z"/>
		<path class="st2" d="M281.79,308.01c0.77,0,1.4-0.22,1.91-0.67c0.51-0.45,0.78-1,0.81-1.66h2.9c-0.03,0.85-0.3,1.65-0.8,2.38
			c-0.5,0.74-1.17,1.32-2.02,1.75c-0.85,0.43-1.77,0.65-2.76,0.65c-1.91,0-3.43-0.62-4.55-1.86c-1.12-1.24-1.68-2.95-1.68-5.14
			v-0.32c0-2.08,0.56-3.75,1.67-5c1.11-1.25,2.63-1.88,4.55-1.88c1.63,0,2.95,0.47,3.98,1.42c1.03,0.95,1.56,2.19,1.61,3.74h-2.9
			c-0.03-0.78-0.3-1.43-0.8-1.94c-0.5-0.51-1.14-0.76-1.92-0.76c-1,0-1.76,0.36-2.3,1.08c-0.54,0.72-0.81,1.82-0.82,3.28v0.49
			c0,1.48,0.27,2.59,0.8,3.32C280.01,307.65,280.78,308.01,281.79,308.01z"/>
		<path class="st2" d="M289.15,303.24c0-1.34,0.27-2.55,0.8-3.62c0.53-1.08,1.28-1.9,2.24-2.48c0.96-0.58,2.07-0.87,3.31-0.87
			c1.85,0,3.35,0.59,4.5,1.78c1.15,1.19,1.77,2.77,1.87,4.73l0.01,0.72c0,1.35-0.26,2.55-0.78,3.62s-1.26,1.88-2.23,2.47
			s-2.08,0.87-3.35,0.87c-1.93,0-3.48-0.64-4.64-1.93c-1.16-1.29-1.74-3-1.74-5.14V303.24z M292.23,303.51
			c0,1.41,0.29,2.51,0.87,3.31s1.39,1.2,2.43,1.2s1.84-0.4,2.42-1.21c0.58-0.81,0.87-2,0.87-3.55c0-1.38-0.3-2.48-0.89-3.29
			c-0.59-0.81-1.4-1.21-2.42-1.21c-1,0-1.8,0.4-2.39,1.2C292.52,300.73,292.23,301.92,292.23,303.51z"/>
		<path class="st2" d="M311.65,299.34c-0.41-0.07-0.82-0.1-1.25-0.1c-1.41,0-2.36,0.54-2.85,1.62v9.36h-3.07v-13.69h2.93l0.08,1.53
			c0.74-1.19,1.77-1.78,3.09-1.78c0.44,0,0.8,0.06,1.09,0.18L311.65,299.34z"/>
		<path class="st2" d="M319.55,303.62h-6.64v-2.48h6.64V303.62z"/>
		<path class="st2" d="M54.11,330.42c-0.4-0.07-0.82-0.1-1.25-0.1c-1.41,0-2.36,0.54-2.85,1.62v9.36h-3.07v-13.69h2.94l0.08,1.53
			c0.74-1.19,1.77-1.78,3.09-1.78c0.44,0,0.8,0.06,1.09,0.18L54.11,330.42z"/>
		<path class="st2" d="M62.08,341.56c-1.95,0-3.53-0.61-4.74-1.84c-1.21-1.23-1.82-2.86-1.82-4.9v-0.38c0-1.37,0.26-2.59,0.79-3.66
			c0.53-1.08,1.27-1.91,2.22-2.51s2.02-0.9,3.19-0.9c1.86,0,3.3,0.59,4.32,1.78c1.02,1.19,1.52,2.87,1.52,5.05v1.24h-8.94
			c0.09,1.13,0.47,2.02,1.13,2.68c0.66,0.66,1.49,0.99,2.5,0.99c1.41,0,2.56-0.57,3.44-1.71l1.66,1.58
			c-0.55,0.82-1.28,1.45-2.19,1.9S63.21,341.56,62.08,341.56z M61.71,329.83c-0.84,0-1.52,0.3-2.04,0.89
			c-0.52,0.59-0.85,1.41-0.99,2.47h5.86v-0.23c-0.07-1.03-0.34-1.81-0.82-2.33C63.23,330.09,62.56,329.83,61.71,329.83z"/>
		<path class="st2" d="M75.57,339.1c0.77,0,1.4-0.22,1.91-0.67c0.51-0.45,0.78-1,0.81-1.66h2.9c-0.03,0.85-0.3,1.65-0.8,2.38
			c-0.5,0.74-1.17,1.32-2.02,1.75c-0.85,0.43-1.77,0.65-2.76,0.65c-1.91,0-3.43-0.62-4.55-1.86c-1.12-1.24-1.68-2.95-1.68-5.14
			v-0.32c0-2.08,0.56-3.75,1.67-5c1.11-1.25,2.63-1.88,4.55-1.88c1.63,0,2.95,0.47,3.98,1.42c1.02,0.95,1.56,2.19,1.61,3.74h-2.9
			c-0.03-0.78-0.3-1.43-0.8-1.94c-0.5-0.51-1.14-0.76-1.92-0.76c-1,0-1.76,0.36-2.3,1.08c-0.54,0.72-0.81,1.82-0.82,3.28v0.49
			c0,1.48,0.27,2.59,0.8,3.32S74.56,339.1,75.57,339.1z"/>
		<path class="st2" d="M87.36,324.29v3.33h2.42v2.28h-2.42v7.64c0,0.52,0.1,0.9,0.31,1.13c0.21,0.23,0.58,0.35,1.11,0.35
			c0.35,0,0.71-0.04,1.08-0.13v2.38c-0.7,0.19-1.38,0.29-2.02,0.29c-2.36,0-3.54-1.3-3.54-3.91v-7.75h-2.25v-2.28h2.25v-3.33H87.36z
			"/>
		<path class="st2" d="M102.43,324.29v3.33h2.42v2.28h-2.42v7.64c0,0.52,0.1,0.9,0.31,1.13c0.21,0.23,0.58,0.35,1.11,0.35
			c0.35,0,0.71-0.04,1.08-0.13v2.38c-0.7,0.19-1.38,0.29-2.02,0.29c-2.36,0-3.54-1.3-3.54-3.91v-7.75H97.1v-2.28h2.25v-3.33H102.43z
			"/>
		<path class="st2" d="M110.22,329.11c1-1.16,2.27-1.75,3.81-1.75c2.92,0,4.4,1.67,4.44,5v8.94h-3.07v-8.83c0-0.94-0.2-1.61-0.61-2
			c-0.41-0.39-1.01-0.59-1.8-0.59c-1.23,0-2.15,0.55-2.76,1.64v9.78h-3.07v-19.43h3.07V329.11z"/>
		<path class="st2" d="M127.6,341.56c-1.95,0-3.53-0.61-4.74-1.84c-1.21-1.23-1.82-2.86-1.82-4.9v-0.38c0-1.37,0.26-2.59,0.79-3.66
			c0.53-1.08,1.27-1.91,2.22-2.51s2.02-0.9,3.19-0.9c1.86,0,3.3,0.59,4.32,1.78c1.02,1.19,1.52,2.87,1.52,5.05v1.24h-8.94
			c0.09,1.13,0.47,2.02,1.13,2.68c0.66,0.66,1.49,0.99,2.5,0.99c1.41,0,2.56-0.57,3.44-1.71l1.66,1.58
			c-0.55,0.82-1.28,1.45-2.19,1.9S128.74,341.56,127.6,341.56z M127.24,329.83c-0.84,0-1.52,0.3-2.04,0.89
			c-0.52,0.59-0.85,1.41-0.99,2.47h5.86v-0.23c-0.07-1.03-0.34-1.81-0.82-2.33C128.75,330.09,128.09,329.83,127.24,329.83z"/>
		<path class="st2" d="M144.82,327.61l0.09,1.43c0.96-1.12,2.28-1.68,3.95-1.68c1.83,0,3.08,0.7,3.76,2.1c1-1.4,2.4-2.1,4.2-2.1
			c1.51,0,2.63,0.42,3.37,1.25s1.12,2.07,1.13,3.69v8.99h-3.07v-8.91c0-0.87-0.19-1.51-0.57-1.91c-0.38-0.41-1.01-0.61-1.89-0.61
			c-0.7,0-1.27,0.19-1.71,0.56c-0.44,0.38-0.75,0.87-0.93,1.47l0.01,9.39h-3.07v-9.01c-0.04-1.61-0.86-2.42-2.47-2.42
			c-1.23,0-2.1,0.5-2.62,1.5v9.92h-3.07v-13.69H144.82z"/>
		<path class="st2" d="M163.9,334.33c0-1.34,0.27-2.55,0.8-3.62c0.53-1.08,1.28-1.9,2.24-2.48c0.96-0.58,2.07-0.87,3.31-0.87
			c1.85,0,3.35,0.59,4.5,1.78c1.15,1.19,1.77,2.77,1.87,4.73l0.01,0.72c0,1.35-0.26,2.55-0.78,3.62s-1.26,1.88-2.23,2.47
			s-2.08,0.87-3.35,0.87c-1.93,0-3.48-0.64-4.64-1.93c-1.16-1.29-1.74-3-1.74-5.14V334.33z M166.97,334.6
			c0,1.41,0.29,2.51,0.87,3.31c0.58,0.8,1.39,1.2,2.43,1.2c1.04,0,1.84-0.4,2.42-1.21s0.87-2,0.87-3.55c0-1.38-0.3-2.48-0.89-3.29
			s-1.4-1.21-2.42-1.21c-1,0-1.8,0.4-2.39,1.2C167.26,331.82,166.97,333.01,166.97,334.6z"/>
		<path class="st2" d="M186.89,337.58c0-0.55-0.23-0.97-0.68-1.25c-0.45-0.29-1.2-0.54-2.25-0.76c-1.05-0.22-1.92-0.5-2.62-0.83
			c-1.53-0.74-2.3-1.82-2.3-3.23c0-1.18,0.5-2.17,1.49-2.96s2.26-1.19,3.79-1.19c1.64,0,2.96,0.41,3.97,1.21s1.51,1.86,1.51,3.15
			h-3.07c0-0.59-0.22-1.08-0.66-1.47c-0.44-0.39-1.02-0.59-1.75-0.59c-0.67,0-1.22,0.16-1.65,0.47c-0.43,0.31-0.64,0.73-0.64,1.25
			c0,0.47,0.2,0.84,0.59,1.1c0.4,0.26,1.2,0.53,2.4,0.79s2.15,0.58,2.84,0.95c0.69,0.37,1.2,0.81,1.53,1.32
			c0.33,0.51,0.5,1.14,0.5,1.87c0,1.23-0.51,2.23-1.53,2.99c-1.02,0.76-2.36,1.14-4.01,1.14c-1.12,0-2.12-0.2-3-0.61
			c-0.88-0.4-1.56-0.96-2.05-1.67c-0.49-0.71-0.73-1.47-0.73-2.29h2.99c0.04,0.73,0.32,1.28,0.82,1.68
			c0.51,0.39,1.18,0.59,2.01,0.59c0.81,0,1.42-0.15,1.85-0.46S186.89,338.08,186.89,337.58z"/>
		<path class="st2" d="M196.44,324.29v3.33h2.42v2.28h-2.42v7.64c0,0.52,0.1,0.9,0.31,1.13c0.21,0.23,0.58,0.35,1.11,0.35
			c0.35,0,0.71-0.04,1.08-0.13v2.38c-0.7,0.19-1.38,0.29-2.02,0.29c-2.36,0-3.54-1.3-3.54-3.91v-7.75h-2.25v-2.28h2.25v-3.33H196.44
			z"/>
		<path class="st2" d="M213.28,339.1c0.77,0,1.4-0.22,1.91-0.67c0.51-0.45,0.78-1,0.81-1.66h2.9c-0.03,0.85-0.3,1.65-0.8,2.38
			c-0.5,0.74-1.17,1.32-2.02,1.75c-0.85,0.43-1.77,0.65-2.76,0.65c-1.91,0-3.43-0.62-4.55-1.86c-1.12-1.24-1.68-2.95-1.68-5.14
			v-0.32c0-2.08,0.56-3.75,1.67-5c1.11-1.25,2.63-1.88,4.55-1.88c1.63,0,2.95,0.47,3.98,1.42c1.03,0.95,1.56,2.19,1.61,3.74H216
			c-0.03-0.78-0.3-1.43-0.8-1.94c-0.5-0.51-1.14-0.76-1.92-0.76c-1,0-1.76,0.36-2.3,1.08c-0.54,0.72-0.81,1.82-0.82,3.28v0.49
			c0,1.48,0.27,2.59,0.8,3.32C211.5,338.74,212.27,339.1,213.28,339.1z"/>
		<path class="st2" d="M220.64,334.33c0-1.34,0.27-2.55,0.8-3.62c0.53-1.08,1.28-1.9,2.24-2.48c0.96-0.58,2.07-0.87,3.31-0.87
			c1.85,0,3.35,0.59,4.5,1.78c1.15,1.19,1.77,2.77,1.87,4.73l0.01,0.72c0,1.35-0.26,2.55-0.78,3.62s-1.26,1.88-2.23,2.47
			s-2.08,0.87-3.35,0.87c-1.93,0-3.48-0.64-4.64-1.93c-1.16-1.29-1.74-3-1.74-5.14V334.33z M223.72,334.6
			c0,1.41,0.29,2.51,0.87,3.31s1.39,1.2,2.43,1.2s1.84-0.4,2.42-1.21c0.58-0.81,0.87-2,0.87-3.55c0-1.38-0.3-2.48-0.89-3.29
			c-0.59-0.81-1.4-1.21-2.42-1.21c-1,0-1.8,0.4-2.39,1.2C224.01,331.82,223.72,333.01,223.72,334.6z"/>
		<path class="st2" d="M238.86,327.61l0.09,1.43c0.96-1.12,2.28-1.68,3.95-1.68c1.83,0,3.08,0.7,3.76,2.1c1-1.4,2.39-2.1,4.2-2.1
			c1.51,0,2.63,0.42,3.37,1.25c0.74,0.83,1.11,2.07,1.13,3.69v8.99h-3.07v-8.91c0-0.87-0.19-1.51-0.57-1.91
			c-0.38-0.41-1.01-0.61-1.88-0.61c-0.7,0-1.27,0.19-1.71,0.56c-0.44,0.38-0.75,0.87-0.93,1.47l0.01,9.39h-3.07v-9.01
			c-0.04-1.61-0.86-2.42-2.47-2.42c-1.23,0-2.1,0.5-2.62,1.5v9.92h-3.07v-13.69H238.86z"/>
		<path class="st2" d="M261.4,327.61l0.09,1.43c0.96-1.12,2.28-1.68,3.95-1.68c1.83,0,3.08,0.7,3.76,2.1c1-1.4,2.39-2.1,4.2-2.1
			c1.51,0,2.63,0.42,3.37,1.25c0.74,0.83,1.11,2.07,1.13,3.69v8.99h-3.07v-8.91c0-0.87-0.19-1.51-0.57-1.91
			c-0.38-0.41-1.01-0.61-1.88-0.61c-0.7,0-1.27,0.19-1.71,0.56c-0.44,0.38-0.75,0.87-0.93,1.47l0.01,9.39h-3.07v-9.01
			c-0.04-1.61-0.86-2.42-2.47-2.42c-1.23,0-2.1,0.5-2.62,1.5v9.92h-3.07v-13.69H261.4z"/>
		<path class="st2" d="M280.48,334.33c0-1.34,0.27-2.55,0.8-3.62c0.53-1.08,1.28-1.9,2.24-2.48c0.96-0.58,2.07-0.87,3.31-0.87
			c1.85,0,3.35,0.59,4.5,1.78c1.15,1.19,1.77,2.77,1.87,4.73l0.01,0.72c0,1.35-0.26,2.55-0.78,3.62s-1.26,1.88-2.23,2.47
			s-2.08,0.87-3.35,0.87c-1.93,0-3.48-0.64-4.64-1.93c-1.16-1.29-1.74-3-1.74-5.14V334.33z M283.55,334.6
			c0,1.41,0.29,2.51,0.87,3.31s1.39,1.2,2.43,1.2s1.84-0.4,2.42-1.21c0.58-0.81,0.87-2,0.87-3.55c0-1.38-0.3-2.48-0.89-3.29
			c-0.59-0.81-1.4-1.21-2.42-1.21c-1,0-1.8,0.4-2.39,1.2C283.85,331.82,283.55,333.01,283.55,334.6z"/>
		<path class="st2" d="M298.66,327.61l0.09,1.58c1.01-1.22,2.34-1.83,3.99-1.83c2.85,0,4.3,1.63,4.35,4.9v9.04h-3.07v-8.87
			c0-0.87-0.19-1.51-0.56-1.93c-0.38-0.42-0.99-0.63-1.84-0.63c-1.24,0-2.16,0.56-2.77,1.68v9.74h-3.07v-13.69H298.66z"/>
		<path class="st2" d="M45.11,365.69c0,2.12-0.48,3.81-1.44,5.07s-2.25,1.89-3.87,1.89c-1.5,0-2.7-0.49-3.6-1.48v6.49h-3.07V358.7
			h2.83l0.13,1.39c0.9-1.1,2.13-1.64,3.68-1.64c1.67,0,2.98,0.62,3.93,1.87s1.42,2.97,1.42,5.18V365.69z M42.05,365.42
			c0-1.37-0.27-2.45-0.82-3.25c-0.54-0.8-1.32-1.2-2.33-1.2c-1.26,0-2.16,0.52-2.71,1.56v6.07c0.56,1.06,1.47,1.59,2.73,1.59
			c0.98,0,1.74-0.39,2.3-1.18C41.77,368.22,42.05,367.02,42.05,365.42z"/>
		<path class="st2" d="M54.87,361.51c-0.4-0.07-0.82-0.1-1.25-0.1c-1.41,0-2.36,0.54-2.85,1.62v9.36H47.7V358.7h2.94l0.08,1.53
			c0.74-1.19,1.77-1.78,3.09-1.78c0.44,0,0.8,0.06,1.09,0.18L54.87,361.51z"/>
		<path class="st2" d="M55.78,365.42c0-1.34,0.27-2.55,0.8-3.62c0.53-1.08,1.28-1.9,2.24-2.48c0.96-0.58,2.07-0.87,3.31-0.87
			c1.85,0,3.35,0.59,4.5,1.78c1.15,1.19,1.77,2.77,1.87,4.73l0.01,0.72c0,1.35-0.26,2.55-0.78,3.62s-1.26,1.88-2.23,2.47
			s-2.08,0.87-3.35,0.87c-1.93,0-3.48-0.64-4.64-1.93c-1.16-1.29-1.74-3-1.74-5.14V365.42z M58.86,365.69
			c0,1.41,0.29,2.51,0.87,3.31c0.58,0.8,1.39,1.2,2.43,1.2c1.04,0,1.84-0.4,2.42-1.21s0.87-2,0.87-3.55c0-1.38-0.3-2.48-0.89-3.29
			s-1.4-1.21-2.42-1.21c-1,0-1.8,0.4-2.39,1.2C59.15,362.91,58.86,364.1,58.86,365.69z"/>
		<path class="st2" d="M83.12,365.69c0,2.12-0.47,3.82-1.42,5.07s-2.25,1.88-3.92,1.88c-1.6,0-2.85-0.58-3.74-1.73l-0.15,1.48H71.1
			v-19.43h3.07v7.06c0.89-1.05,2.08-1.57,3.58-1.57c1.67,0,2.98,0.62,3.93,1.86c0.95,1.24,1.43,2.97,1.43,5.2V365.69z M80.05,365.42
			c0-1.48-0.26-2.6-0.78-3.34s-1.28-1.11-2.28-1.11c-1.33,0-2.27,0.58-2.81,1.75v5.64c0.55,1.19,1.49,1.78,2.83,1.78
			c0.96,0,1.7-0.36,2.23-1.08c0.52-0.72,0.79-1.8,0.81-3.25V365.42z"/>
		<path class="st2" d="M88.96,372.39h-3.07v-19.43h3.07V372.39z"/>
		<path class="st2" d="M98.34,372.64c-1.95,0-3.53-0.61-4.74-1.84c-1.21-1.23-1.82-2.86-1.82-4.9v-0.38c0-1.37,0.26-2.59,0.79-3.66
			c0.53-1.08,1.27-1.91,2.22-2.51s2.02-0.9,3.19-0.9c1.86,0,3.3,0.59,4.32,1.78c1.02,1.19,1.52,2.87,1.52,5.05v1.24h-8.94
			c0.09,1.13,0.47,2.02,1.13,2.68c0.66,0.66,1.49,0.99,2.5,0.99c1.41,0,2.56-0.57,3.44-1.71l1.66,1.58
			c-0.55,0.82-1.28,1.45-2.19,1.9S99.48,372.64,98.34,372.64z M97.97,360.92c-0.84,0-1.52,0.3-2.04,0.89
			c-0.52,0.59-0.85,1.41-0.99,2.47h5.86v-0.23c-0.07-1.03-0.34-1.81-0.82-2.33C99.49,361.18,98.82,360.92,97.97,360.92z"/>
		<path class="st2" d="M109.1,358.7l0.09,1.43c0.96-1.12,2.28-1.68,3.95-1.68c1.83,0,3.08,0.7,3.76,2.1c1-1.4,2.4-2.1,4.2-2.1
			c1.51,0,2.63,0.42,3.37,1.25s1.12,2.07,1.13,3.69v8.99h-3.07v-8.91c0-0.87-0.19-1.51-0.57-1.91c-0.38-0.41-1.01-0.61-1.89-0.61
			c-0.7,0-1.27,0.19-1.71,0.56c-0.44,0.38-0.75,0.87-0.93,1.47l0.01,9.39h-3.07v-9.01c-0.04-1.61-0.86-2.42-2.47-2.42
			c-1.23,0-2.1,0.5-2.62,1.5v9.92h-3.07V358.7H109.1z"/>
		<path class="st2" d="M136.43,368.67c0-0.55-0.23-0.97-0.68-1.25c-0.45-0.29-1.2-0.54-2.25-0.76c-1.05-0.22-1.92-0.5-2.62-0.83
			c-1.54-0.74-2.3-1.82-2.3-3.23c0-1.18,0.5-2.17,1.49-2.96c0.99-0.79,2.26-1.19,3.79-1.19c1.64,0,2.96,0.41,3.97,1.21
			c1.01,0.81,1.51,1.86,1.51,3.15h-3.07c0-0.59-0.22-1.08-0.66-1.47c-0.44-0.39-1.02-0.59-1.75-0.59c-0.67,0-1.23,0.16-1.65,0.47
			c-0.43,0.31-0.64,0.73-0.64,1.25c0,0.47,0.2,0.84,0.59,1.1c0.4,0.26,1.2,0.53,2.4,0.79c1.21,0.27,2.15,0.58,2.84,0.95
			c0.69,0.37,1.2,0.81,1.53,1.32c0.33,0.51,0.5,1.14,0.5,1.87c0,1.23-0.51,2.23-1.53,2.99c-1.02,0.76-2.36,1.14-4.01,1.14
			c-1.12,0-2.12-0.2-3-0.61c-0.88-0.4-1.56-0.96-2.05-1.67c-0.49-0.71-0.73-1.47-0.73-2.29h2.99c0.04,0.73,0.32,1.28,0.82,1.68
			c0.51,0.39,1.18,0.59,2.01,0.59c0.81,0,1.43-0.15,1.85-0.46C136.22,369.57,136.43,369.17,136.43,368.67z"/>
		<path class="st2" d="M144.04,369.15c0.57,0,1.02,0.16,1.33,0.49c0.31,0.32,0.47,0.73,0.47,1.22c0,0.48-0.16,0.88-0.47,1.2
			c-0.31,0.32-0.75,0.47-1.33,0.47c-0.55,0-0.98-0.16-1.3-0.47c-0.32-0.31-0.48-0.71-0.48-1.2s0.16-0.9,0.47-1.22
			C143.04,369.31,143.48,369.15,144.04,369.15z"/>
		<path class="st2" d="M159.31,369.84h8.36v2.56h-11.56v-18.42h3.2V369.84z"/>
		<path class="st2" d="M169.83,355.15c0-0.47,0.15-0.86,0.45-1.18c0.3-0.31,0.73-0.47,1.28-0.47s0.99,0.16,1.29,0.47
			c0.3,0.31,0.46,0.7,0.46,1.18c0,0.46-0.15,0.85-0.46,1.16s-0.73,0.46-1.29,0.46s-0.98-0.15-1.28-0.46S169.83,355.61,169.83,355.15
			z M173.1,372.39h-3.07V358.7h3.07V372.39z"/>
		<path class="st2" d="M180.89,366.52l-1.37,1.4v4.47h-3.07v-19.43h3.07v11.21l0.96-1.2l3.78-4.26h3.7l-5.09,5.71l5.63,7.98h-3.55
			L180.89,366.52z"/>
		<path class="st2" d="M196,372.64c-1.95,0-3.53-0.61-4.74-1.84c-1.21-1.23-1.82-2.86-1.82-4.9v-0.38c0-1.37,0.26-2.59,0.79-3.66
			c0.53-1.08,1.27-1.91,2.22-2.51s2.02-0.9,3.19-0.9c1.86,0,3.3,0.59,4.32,1.78c1.02,1.19,1.52,2.87,1.52,5.05v1.24h-8.94
			c0.09,1.13,0.47,2.02,1.13,2.68c0.66,0.66,1.5,0.99,2.5,0.99c1.41,0,2.56-0.57,3.44-1.71l1.66,1.58c-0.55,0.82-1.28,1.45-2.2,1.9
			S197.13,372.64,196,372.64z M195.63,360.92c-0.84,0-1.52,0.3-2.04,0.89c-0.52,0.59-0.85,1.41-0.99,2.47h5.86v-0.23
			c-0.07-1.03-0.34-1.81-0.82-2.33S196.48,360.92,195.63,360.92z"/>
		<path class="st2" d="M222.31,365.69c0,2.12-0.48,3.81-1.44,5.07c-0.96,1.26-2.25,1.89-3.87,1.89c-1.5,0-2.7-0.49-3.61-1.48v6.49
			h-3.07V358.7h2.83l0.13,1.39c0.9-1.1,2.13-1.64,3.68-1.64c1.67,0,2.98,0.62,3.93,1.87c0.95,1.24,1.42,2.97,1.42,5.18V365.69z
			 M219.25,365.42c0-1.37-0.27-2.45-0.82-3.25c-0.54-0.8-1.32-1.2-2.33-1.2c-1.26,0-2.16,0.52-2.71,1.56v6.07
			c0.56,1.06,1.47,1.59,2.73,1.59c0.98,0,1.74-0.39,2.3-1.18C218.97,368.22,219.25,367.02,219.25,365.42z"/>
		<path class="st2" d="M230.93,372.64c-1.95,0-3.53-0.61-4.74-1.84c-1.21-1.23-1.82-2.86-1.82-4.9v-0.38c0-1.37,0.26-2.59,0.79-3.66
			c0.53-1.08,1.27-1.91,2.22-2.51s2.02-0.9,3.19-0.9c1.86,0,3.3,0.59,4.32,1.78c1.02,1.19,1.52,2.87,1.52,5.05v1.24h-8.94
			c0.09,1.13,0.47,2.02,1.13,2.68c0.66,0.66,1.5,0.99,2.5,0.99c1.41,0,2.56-0.57,3.44-1.71l1.66,1.58c-0.55,0.82-1.28,1.45-2.2,1.9
			S232.07,372.64,230.93,372.64z M230.57,360.92c-0.84,0-1.52,0.3-2.04,0.89c-0.52,0.59-0.85,1.41-0.99,2.47h5.86v-0.23
			c-0.07-1.03-0.34-1.81-0.82-2.33S231.42,360.92,230.57,360.92z"/>
		<path class="st2" d="M244.84,372.64c-1.95,0-3.53-0.61-4.74-1.84c-1.21-1.23-1.82-2.86-1.82-4.9v-0.38c0-1.37,0.26-2.59,0.79-3.66
			c0.53-1.08,1.27-1.91,2.22-2.51s2.02-0.9,3.19-0.9c1.86,0,3.3,0.59,4.32,1.78c1.02,1.19,1.52,2.87,1.52,5.05v1.24h-8.94
			c0.09,1.13,0.47,2.02,1.13,2.68c0.66,0.66,1.5,0.99,2.5,0.99c1.41,0,2.56-0.57,3.44-1.71l1.66,1.58c-0.55,0.82-1.28,1.45-2.2,1.9
			S245.97,372.64,244.84,372.64z M244.47,360.92c-0.84,0-1.52,0.3-2.04,0.89c-0.52,0.59-0.85,1.41-0.99,2.47h5.86v-0.23
			c-0.07-1.03-0.34-1.81-0.82-2.33S245.32,360.92,244.47,360.92z"/>
		<path class="st2" d="M252.72,355.15c0-0.47,0.15-0.86,0.45-1.18c0.3-0.31,0.73-0.47,1.28-0.47s0.99,0.16,1.29,0.47
			c0.3,0.31,0.46,0.7,0.46,1.18c0,0.46-0.15,0.85-0.46,1.16s-0.73,0.46-1.29,0.46s-0.99-0.15-1.28-0.46
			C252.87,356,252.72,355.61,252.72,355.15z M255.98,372.39h-3.07V358.7h3.07V372.39z"/>
		<path class="st2" d="M262.18,358.7l0.09,1.58c1.01-1.22,2.34-1.83,3.99-1.83c2.85,0,4.3,1.63,4.35,4.9v9.04h-3.07v-8.87
			c0-0.87-0.19-1.51-0.56-1.93c-0.38-0.42-0.99-0.63-1.84-0.63c-1.24,0-2.16,0.56-2.77,1.68v9.74h-3.07V358.7H262.18z"/>
		<path class="st2" d="M273.2,365.45c0-2.13,0.5-3.82,1.5-5.09s2.33-1.9,3.98-1.9c1.56,0,2.79,0.54,3.68,1.63l0.14-1.38h2.77v13.27
			c0,1.8-0.56,3.21-1.68,4.25c-1.12,1.04-2.62,1.56-4.52,1.56c-1,0-1.98-0.21-2.94-0.63s-1.68-0.96-2.18-1.64l1.46-1.85
			c0.94,1.12,2.11,1.68,3.49,1.68c1.02,0,1.83-0.28,2.42-0.83c0.59-0.55,0.89-1.36,0.89-2.44v-0.92c-0.89,0.99-2.07,1.48-3.54,1.48
			c-1.6,0-2.91-0.64-3.93-1.91S273.2,367.7,273.2,365.45z M276.26,365.71c0,1.37,0.28,2.46,0.84,3.24c0.56,0.79,1.34,1.18,2.33,1.18
			c1.24,0,2.16-0.53,2.76-1.59v-6.02c-0.58-1.04-1.49-1.56-2.73-1.56c-1.01,0-1.8,0.4-2.36,1.2
			C276.54,362.97,276.26,364.15,276.26,365.71z"/>
		<path class="st2" d="M294.3,365.42c0-1.34,0.27-2.55,0.8-3.62c0.53-1.08,1.28-1.9,2.24-2.48c0.96-0.58,2.07-0.87,3.31-0.87
			c1.85,0,3.35,0.59,4.5,1.78c1.15,1.19,1.77,2.77,1.87,4.73l0.01,0.72c0,1.35-0.26,2.55-0.78,3.62s-1.26,1.88-2.23,2.47
			s-2.08,0.87-3.35,0.87c-1.93,0-3.48-0.64-4.64-1.93c-1.16-1.29-1.74-3-1.74-5.14V365.42z M297.37,365.69
			c0,1.41,0.29,2.51,0.87,3.31s1.39,1.2,2.43,1.2s1.84-0.4,2.42-1.21c0.58-0.81,0.87-2,0.87-3.55c0-1.38-0.3-2.48-0.89-3.29
			c-0.59-0.81-1.4-1.21-2.42-1.21c-1,0-1.8,0.4-2.39,1.2C297.67,362.91,297.37,364.1,297.37,365.69z"/>
		<path class="st2" d="M312.48,358.7l0.09,1.58c1.01-1.22,2.34-1.83,3.99-1.83c2.85,0,4.3,1.63,4.35,4.9v9.04h-3.07v-8.87
			c0-0.87-0.19-1.51-0.56-1.93c-0.38-0.42-0.99-0.63-1.84-0.63c-1.24,0-2.16,0.56-2.77,1.68v9.74h-3.07V358.7H312.48z"/>
		<path class="st2" d="M116.2,399.08l2.78-9.29h3.28l-5.44,15.76c-0.83,2.3-2.25,3.45-4.25,3.45c-0.45,0-0.94-0.08-1.48-0.23v-2.39
			l0.58,0.04c0.78,0,1.36-0.14,1.75-0.42c0.39-0.28,0.7-0.76,0.93-1.42l0.44-1.17l-4.81-13.61h3.31L116.2,399.08z"/>
		<path class="st2" d="M123.45,396.51c0-1.34,0.27-2.55,0.8-3.62c0.53-1.08,1.28-1.9,2.24-2.48c0.96-0.58,2.07-0.87,3.31-0.87
			c1.85,0,3.35,0.59,4.5,1.78c1.15,1.19,1.77,2.77,1.87,4.73l0.01,0.72c0,1.35-0.26,2.55-0.78,3.62s-1.26,1.88-2.23,2.47
			s-2.08,0.87-3.35,0.87c-1.93,0-3.48-0.64-4.64-1.93c-1.16-1.29-1.74-3-1.74-5.14V396.51z M126.52,396.77
			c0,1.41,0.29,2.51,0.87,3.31c0.58,0.8,1.39,1.2,2.43,1.2c1.04,0,1.84-0.4,2.42-1.21s0.87-2,0.87-3.55c0-1.38-0.3-2.48-0.89-3.29
			s-1.4-1.21-2.42-1.21c-1,0-1.8,0.4-2.39,1.2C126.82,394,126.52,395.19,126.52,396.77z"/>
		<path class="st2" d="M147.06,402.14c-0.9,1.06-2.18,1.59-3.85,1.59c-1.48,0-2.61-0.43-3.37-1.3c-0.76-0.87-1.15-2.12-1.15-3.77
			v-8.87h3.07v8.83c0,1.74,0.72,2.61,2.16,2.61c1.49,0,2.5-0.54,3.02-1.61v-9.83h3.07v13.69h-2.9L147.06,402.14z"/>
		<path class="st2" d="M160.33,392.6c-0.4-0.07-0.82-0.1-1.25-0.1c-1.41,0-2.36,0.54-2.85,1.62v9.36h-3.07v-13.69h2.94l0.08,1.53
			c0.74-1.19,1.77-1.78,3.09-1.78c0.44,0,0.8,0.06,1.09,0.18L160.33,392.6z"/>
		<path class="st2" d="M176.4,399.76c0-0.55-0.23-0.97-0.68-1.25c-0.45-0.29-1.2-0.54-2.25-0.76c-1.05-0.22-1.92-0.5-2.62-0.83
			c-1.54-0.74-2.3-1.82-2.3-3.23c0-1.18,0.5-2.17,1.49-2.96c0.99-0.79,2.26-1.19,3.79-1.19c1.64,0,2.96,0.41,3.97,1.21
			c1.01,0.81,1.51,1.86,1.51,3.15h-3.07c0-0.59-0.22-1.08-0.66-1.47c-0.44-0.39-1.02-0.59-1.75-0.59c-0.67,0-1.23,0.16-1.65,0.47
			c-0.43,0.31-0.64,0.73-0.64,1.25c0,0.47,0.2,0.84,0.59,1.1c0.4,0.26,1.2,0.53,2.4,0.79c1.21,0.27,2.15,0.58,2.84,0.95
			c0.69,0.37,1.2,0.81,1.53,1.32c0.33,0.51,0.5,1.14,0.5,1.87c0,1.23-0.51,2.23-1.53,2.99c-1.02,0.76-2.36,1.14-4.01,1.14
			c-1.12,0-2.12-0.2-3-0.61c-0.88-0.4-1.56-0.96-2.05-1.67c-0.49-0.71-0.73-1.47-0.73-2.29h2.99c0.04,0.73,0.32,1.28,0.82,1.68
			c0.51,0.39,1.18,0.59,2.01,0.59c0.81,0,1.43-0.15,1.85-0.46C176.19,400.66,176.4,400.26,176.4,399.76z"/>
		<path class="st2" d="M185.13,391.28c1-1.16,2.27-1.75,3.81-1.75c2.92,0,4.4,1.67,4.44,5v8.94h-3.07v-8.83c0-0.94-0.2-1.61-0.61-2
			c-0.41-0.39-1.01-0.59-1.8-0.59c-1.23,0-2.15,0.55-2.76,1.64v9.78h-3.07v-19.43h3.07V391.28z"/>
		<path class="st2" d="M195.91,396.51c0-1.34,0.27-2.55,0.8-3.62c0.53-1.08,1.28-1.9,2.24-2.48c0.96-0.58,2.07-0.87,3.31-0.87
			c1.85,0,3.35,0.59,4.5,1.78c1.15,1.19,1.77,2.77,1.87,4.73l0.01,0.72c0,1.35-0.26,2.55-0.78,3.62s-1.26,1.88-2.23,2.47
			s-2.08,0.87-3.35,0.87c-1.93,0-3.48-0.64-4.64-1.93c-1.16-1.29-1.74-3-1.74-5.14V396.51z M198.98,396.77
			c0,1.41,0.29,2.51,0.87,3.31s1.39,1.2,2.43,1.2s1.84-0.4,2.42-1.21c0.58-0.81,0.87-2,0.87-3.55c0-1.38-0.3-2.48-0.89-3.29
			c-0.59-0.81-1.4-1.21-2.42-1.21c-1,0-1.8,0.4-2.39,1.2C199.27,394,198.98,395.19,198.98,396.77z"/>
		<path class="st2" d="M217.26,403.73c-1.95,0-3.53-0.61-4.74-1.84c-1.21-1.23-1.82-2.86-1.82-4.9v-0.38c0-1.37,0.26-2.59,0.79-3.66
			c0.53-1.08,1.27-1.91,2.22-2.51s2.02-0.9,3.19-0.9c1.86,0,3.3,0.59,4.32,1.78c1.02,1.19,1.52,2.87,1.52,5.05v1.24h-8.94
			c0.09,1.13,0.47,2.02,1.13,2.68c0.66,0.66,1.5,0.99,2.5,0.99c1.41,0,2.56-0.57,3.44-1.71l1.66,1.58c-0.55,0.82-1.28,1.45-2.2,1.9
			S218.4,403.73,217.26,403.73z M216.89,392.01c-0.84,0-1.52,0.3-2.04,0.89c-0.52,0.59-0.85,1.41-0.99,2.47h5.86v-0.23
			c-0.07-1.03-0.34-1.81-0.82-2.33S217.74,392.01,216.89,392.01z"/>
		<path class="st2" d="M232.81,399.76c0-0.55-0.23-0.97-0.68-1.25c-0.45-0.29-1.2-0.54-2.25-0.76c-1.05-0.22-1.92-0.5-2.62-0.83
			c-1.53-0.74-2.3-1.82-2.3-3.23c0-1.18,0.5-2.17,1.49-2.96s2.26-1.19,3.79-1.19c1.64,0,2.96,0.41,3.97,1.21s1.51,1.86,1.51,3.15
			h-3.07c0-0.59-0.22-1.08-0.66-1.47c-0.44-0.39-1.02-0.59-1.75-0.59c-0.67,0-1.22,0.16-1.65,0.47c-0.43,0.31-0.64,0.73-0.64,1.25
			c0,0.47,0.2,0.84,0.59,1.1c0.4,0.26,1.2,0.53,2.4,0.79s2.15,0.58,2.84,0.95c0.69,0.37,1.2,0.81,1.53,1.32
			c0.33,0.51,0.5,1.14,0.5,1.87c0,1.23-0.51,2.23-1.53,2.99c-1.02,0.76-2.36,1.14-4.01,1.14c-1.12,0-2.12-0.2-3-0.61
			c-0.88-0.4-1.56-0.96-2.05-1.67c-0.49-0.71-0.73-1.47-0.73-2.29h2.99c0.04,0.73,0.32,1.28,0.82,1.68
			c0.51,0.39,1.18,0.59,2.01,0.59c0.81,0,1.42-0.15,1.85-0.46S232.81,400.26,232.81,399.76z"/>
		<path class="st2" d="M240.42,400.24c0.57,0,1.02,0.16,1.33,0.49c0.31,0.32,0.47,0.73,0.47,1.22c0,0.48-0.16,0.88-0.47,1.2
			c-0.31,0.32-0.75,0.47-1.33,0.47c-0.55,0-0.98-0.16-1.3-0.47c-0.32-0.31-0.48-0.71-0.48-1.2s0.16-0.9,0.47-1.22
			C239.42,400.4,239.86,400.24,240.42,400.24z"/>
	</g>
	<g>
		<path class="st3" d="M109.99,454.31c5.14,3.25,8.42,5.7,9.83,7.35c1.89,2.24,2.84,4.87,2.84,7.9c0,3.31-1.12,6.11-3.35,8.4
			c-2.24,2.29-5.34,3.61-9.32,3.95v3.77h-2.8v-3.55c-2.28-0.04-4.3-0.23-6.06-0.56c-1.76-0.33-3.78-0.94-6.06-1.82v-10.41h1.35
			c0.43,2.37,1.11,4.28,2.03,5.74c0.92,1.46,2.09,2.56,3.5,3.3c1.41,0.74,3.15,1.2,5.24,1.37v-15.93
			c-5.18-3.25-8.62-5.84-10.33-7.79c-1.71-1.95-2.56-4.21-2.56-6.79c0-2.79,1.07-5.26,3.22-7.4s5.37-3.48,9.67-4.01v-1.52h2.8v1.52
			c3.65,0.26,7.33,1.39,11.03,3.38v9.32h-1.26c-0.62-2.11-1.37-3.84-2.24-5.19c-0.87-1.35-1.99-2.51-3.37-3.48
			c-1.05-0.71-2.44-1.3-4.16-1.77V454.31z M107.19,439.99c-1.57,0.13-2.83,0.56-3.77,1.29c-1.5,1.14-2.26,2.51-2.26,4.13
			c0,0.99,0.35,1.99,1.05,3c0.7,1.01,2.36,2.39,4.98,4.13V439.99z M109.99,479.75c1.85-0.43,3.2-1.17,4.06-2.21
			c0.86-1.04,1.29-2.35,1.29-3.92c0-1.35-0.38-2.62-1.14-3.8c-0.76-1.18-2.17-2.53-4.21-4.03V479.75z"/>
		<path class="st3" d="M126.79,482.13v-0.9c3.57-0.82,6.59-2.02,9.08-3.61c2.48-1.59,4.45-3.56,5.9-5.9s2.47-5.04,3.05-8.09
			c-1.33,0.69-2.47,1.17-3.4,1.43s-1.92,0.4-2.95,0.4c-3.31,0-6.07-1.19-8.27-3.58c-2.2-2.39-3.3-5.65-3.3-9.8
			c0-2.88,0.6-5.52,1.79-7.92s2.9-4.26,5.11-5.58c2.21-1.32,4.51-1.98,6.9-1.98c2.56,0,4.98,0.73,7.25,2.19
			c2.28,1.46,4.09,3.58,5.45,6.35s2.03,5.93,2.03,9.48c0,4.6-1.1,9.01-3.3,13.22c-2.2,4.21-5.49,7.59-9.85,10.14
			C137.9,480.54,132.74,481.92,126.79,482.13z M145.3,460.92c0.21-2.41,0.32-4.52,0.32-6.35c0-3.91-0.45-7.55-1.35-10.93
			c-0.52-1.87-1.28-3.25-2.29-4.13c-0.54-0.47-1.24-0.71-2.1-0.71c-1.07,0-1.91,0.46-2.51,1.39c-0.84,1.27-1.26,3.69-1.26,7.25
			c0,5.95,0.71,10.06,2.13,12.32c0.92,1.46,2.17,2.19,3.74,2.19C142.81,461.95,143.92,461.61,145.3,460.92z"/>
	</g>
	<g>
		<path class="st3" d="M188.99,445.65c0,2.31-0.52,4.15-1.57,5.53s-2.46,2.06-4.22,2.06c-1.64,0-2.95-0.54-3.93-1.62v7.08h-3.35
			v-20.67H179l0.14,1.52c0.98-1.2,2.32-1.79,4.02-1.79c1.82,0,3.25,0.68,4.29,2.04s1.55,3.24,1.55,5.65V445.65z M185.65,445.36
			c0-1.49-0.3-2.67-0.89-3.55c-0.59-0.87-1.44-1.31-2.55-1.31c-1.37,0-2.36,0.57-2.95,1.7v6.62c0.61,1.16,1.6,1.74,2.98,1.74
			c1.07,0,1.9-0.43,2.5-1.29S185.65,447.11,185.65,445.36z"/>
		<path class="st3" d="M198.41,453.24c-2.12,0-3.85-0.67-5.17-2.01c-1.32-1.34-1.98-3.12-1.98-5.35v-0.41c0-1.49,0.29-2.82,0.86-4
			s1.38-2.09,2.42-2.74s2.2-0.98,3.48-0.98c2.03,0,3.6,0.65,4.71,1.95s1.66,3.13,1.66,5.51v1.35h-9.76c0.1,1.23,0.51,2.21,1.24,2.93
			c0.72,0.72,1.63,1.08,2.73,1.08c1.54,0,2.79-0.62,3.75-1.86l1.81,1.72c-0.6,0.89-1.4,1.58-2.39,2.08
			C200.77,452.99,199.65,453.24,198.41,453.24z M198,440.45c-0.92,0-1.66,0.32-2.23,0.97c-0.57,0.64-0.93,1.54-1.08,2.69h6.39v-0.25
			c-0.07-1.12-0.37-1.97-0.9-2.55C199.66,440.73,198.93,440.45,198,440.45z"/>
		<path class="st3" d="M214.81,441.1c-0.44-0.07-0.9-0.11-1.37-0.11c-1.54,0-2.57,0.59-3.11,1.77v10.21h-3.35v-14.93h3.2l0.08,1.67
			c0.81-1.3,1.93-1.95,3.37-1.95c0.48,0,0.87,0.06,1.19,0.19L214.81,441.1z"/>
		<path class="st3" d="M184.29,477.95c0-0.6-0.25-1.05-0.74-1.37c-0.49-0.31-1.31-0.59-2.45-0.83c-1.14-0.24-2.09-0.54-2.86-0.91
			c-1.68-0.81-2.51-1.98-2.51-3.52c0-1.29,0.54-2.36,1.63-3.23c1.08-0.87,2.47-1.3,4.14-1.3c1.79,0,3.23,0.44,4.33,1.32
			c1.1,0.88,1.65,2.03,1.65,3.44h-3.35c0-0.64-0.24-1.18-0.72-1.61c-0.48-0.43-1.11-0.64-1.9-0.64c-0.74,0-1.34,0.17-1.8,0.51
			c-0.46,0.34-0.7,0.8-0.7,1.37c0,0.52,0.22,0.92,0.65,1.2c0.43,0.29,1.31,0.57,2.62,0.86c1.32,0.29,2.35,0.63,3.1,1.04
			c0.75,0.4,1.31,0.88,1.67,1.44c0.36,0.56,0.54,1.24,0.54,2.04c0,1.34-0.56,2.43-1.67,3.26c-1.11,0.83-2.57,1.25-4.37,1.25
			c-1.22,0-2.31-0.22-3.27-0.66c-0.96-0.44-1.7-1.05-2.24-1.82c-0.53-0.77-0.8-1.61-0.8-2.5h3.26c0.05,0.79,0.34,1.4,0.9,1.83
			c0.55,0.43,1.28,0.64,2.19,0.64c0.88,0,1.55-0.17,2.01-0.5S184.29,478.5,184.29,477.95z"/>
		<path class="st3" d="M197.08,482.29c-2.12,0-3.85-0.67-5.17-2.01c-1.32-1.34-1.98-3.12-1.98-5.35v-0.41c0-1.49,0.29-2.82,0.86-4
			s1.38-2.09,2.42-2.74s2.2-0.98,3.48-0.98c2.03,0,3.6,0.65,4.71,1.95s1.66,3.13,1.66,5.51v1.35h-9.76c0.1,1.23,0.51,2.21,1.24,2.93
			c0.72,0.72,1.63,1.08,2.73,1.08c1.54,0,2.79-0.62,3.75-1.86l1.81,1.72c-0.6,0.89-1.4,1.58-2.39,2.08
			C199.44,482.04,198.32,482.29,197.08,482.29z M196.68,469.49c-0.92,0-1.66,0.32-2.23,0.97c-0.57,0.64-0.93,1.54-1.08,2.69h6.39
			v-0.25c-0.07-1.12-0.37-1.97-0.9-2.55C198.34,469.78,197.61,469.49,196.68,469.49z"/>
		<path class="st3" d="M208.82,467.08l0.1,1.56c1.05-1.22,2.48-1.83,4.31-1.83c2,0,3.36,0.76,4.1,2.29
			c1.08-1.53,2.61-2.29,4.58-2.29c1.65,0,2.87,0.46,3.68,1.37c0.81,0.91,1.22,2.25,1.24,4.03v9.81h-3.35v-9.71
			c0-0.95-0.21-1.64-0.62-2.08s-1.1-0.66-2.06-0.66c-0.76,0-1.39,0.2-1.87,0.61c-0.48,0.41-0.82,0.95-1.01,1.61l0.01,10.24h-3.35
			v-9.83c-0.05-1.76-0.94-2.64-2.69-2.64c-1.34,0-2.29,0.55-2.86,1.64v10.82h-3.35v-14.93H208.82z"/>
		<path class="st3" d="M230.27,463.2c0-0.51,0.16-0.94,0.49-1.28c0.33-0.34,0.79-0.51,1.4-0.51c0.61,0,1.08,0.17,1.41,0.51
			c0.33,0.34,0.5,0.77,0.5,1.28c0,0.51-0.17,0.93-0.5,1.26c-0.33,0.34-0.8,0.5-1.41,0.5c-0.61,0-1.07-0.17-1.4-0.5
			C230.43,464.13,230.27,463.71,230.27,463.2z M233.83,482.01h-3.35v-14.93h3.35V482.01z"/>
		<path class="st3" d="M240.59,467.08l0.1,1.73c1.1-1.33,2.55-2,4.35-2c3.11,0,4.69,1.78,4.75,5.34v9.87h-3.35v-9.67
			c0-0.95-0.2-1.65-0.61-2.1c-0.41-0.46-1.08-0.68-2.01-0.68c-1.35,0-2.36,0.61-3.02,1.83v10.63h-3.35v-14.93H240.59z"/>
		<path class="st3" d="M262.12,482.01c-0.15-0.29-0.28-0.75-0.39-1.39c-1.07,1.11-2.37,1.67-3.92,1.67c-1.5,0-2.72-0.43-3.67-1.28
			c-0.95-0.86-1.42-1.91-1.42-3.17c0-1.59,0.59-2.81,1.77-3.66c1.18-0.85,2.87-1.28,5.07-1.28h2.06v-0.98
			c0-0.77-0.22-1.39-0.65-1.86c-0.43-0.46-1.09-0.7-1.97-0.7c-0.76,0-1.39,0.19-1.88,0.57c-0.49,0.38-0.73,0.87-0.73,1.46h-3.35
			c0-0.82,0.27-1.58,0.81-2.3c0.54-0.71,1.28-1.27,2.21-1.68c0.93-0.4,1.98-0.61,3.12-0.61c1.75,0,3.14,0.44,4.18,1.32
			c1.04,0.88,1.57,2.11,1.6,3.71v6.73c0,1.34,0.19,2.42,0.57,3.22v0.23H262.12z M258.43,479.6c0.66,0,1.29-0.16,1.87-0.48
			c0.58-0.32,1.02-0.75,1.32-1.3V475h-1.81c-1.24,0-2.18,0.22-2.8,0.65c-0.63,0.43-0.94,1.04-0.94,1.83c0,0.64,0.21,1.16,0.64,1.54
			S257.72,479.6,258.43,479.6z"/>
		<path class="st3" d="M276.31,470.14c-0.44-0.07-0.9-0.11-1.37-0.11c-1.54,0-2.57,0.59-3.11,1.77v10.21h-3.35v-14.93h3.2l0.08,1.67
			c0.81-1.3,1.93-1.95,3.37-1.95c0.48,0,0.87,0.06,1.19,0.19L276.31,470.14z"/>
	</g>
</g>
</svg>
